<svg xmlns="http://www.w3.org/2000/svg" xmlns:xlink="http://www.w3.org/1999/xlink" viewBox="0 0 750 500"><defs><radialGradient id="a79bc90e-f707-4462-a1ad-9e439e215613" cx="0" cy="257" r="184.17" gradientUnits="userSpaceOnUse"><stop offset="0" stop-color="#e7894a"/><stop offset="1" stop-color="#e7894a" stop-opacity="0"/></radialGradient><clipPath id="ac600a2f-2ae3-457b-93a0-4d571e62a8ec"><circle cx="253.49" cy="106.21" r="21.17" transform="translate(13.2 239.61) rotate(-51.77)" fill="none"/></clipPath><clipPath id="b197b409-b2bc-45b8-8dbe-2da4e8c97957"><circle cx="337.75" cy="310.75" r="28.03" transform="translate(-99.03 451.66) rotate(-60.5)" fill="none"/></clipPath><clipPath id="a982fa90-780a-4ef7-b62d-6cd67c06d0c2"><path d="M527.83,335.61c-.05.11-.08.22-.13.33a28.91,28.91,0,0,1-1.23,2.64c15.1,15.26,24.15,27.26,21.85,29.88s-15.56-5-32.79-18.25c-6.82-5.25-14.25-11.38-21.89-18.11s-14.64-13.34-20.7-19.44C457.61,297.22,448.4,285,450.72,282.4s15.35,4.86,32.38,17.94a30.57,30.57,0,0,1,2.78-1.72c-24-18.34-43.6-28.48-47.77-23.75-4.36,4.94,9.46,24.57,32.37,47.28,5.38,5.33,11.25,10.83,17.51,16.35s12.46,10.66,18.42,15.33C531.81,373.72,553,385,557.36,380,561.54,375.3,549,357.09,527.83,335.61Z" fill="none"/></clipPath><clipPath id="af2c9e65-929a-4b57-a736-a511d6ff3149"><circle cx="656.07" cy="297.26" r="21.17" transform="translate(-37.75 490.65) rotate(-39.95)" fill="none"/></clipPath><radialGradient id="a3aa8a6d-2d6b-4323-b641-2635b288f28c" cx="235.31" cy="351.6" r="14.54" gradientTransform="translate(-77.72 -15.28) rotate(-0.15)" gradientUnits="userSpaceOnUse"><stop offset="0" stop-color="#001fb9"/><stop offset="1" stop-color="#003cb9"/></radialGradient><radialGradient id="e31cdbf9-0f08-459e-9ce6-15b332b597b9" cx="-617.72" cy="352.69" r="14.54" gradientTransform="translate(-459.58 661.1) rotate(179.85)" xlink:href="#a3aa8a6d-2d6b-4323-b641-2635b288f28c"/><radialGradient id="bc9995fd-dce6-4c4b-9bfe-8f4fe801868e" cx="247.18" cy="345.58" r="8.17" gradientTransform="translate(-77.72 -15.28) rotate(-0.15)" gradientUnits="userSpaceOnUse"><stop offset="0" stop-color="#2ec0de"/><stop offset="1" stop-color="#017a88"/></radialGradient><radialGradient id="b3f6d446-b142-4591-b9c9-0c67d47f7fa5" cx="251.28" cy="334.91" r="12.16" xlink:href="#bc9995fd-dce6-4c4b-9bfe-8f4fe801868e"/><radialGradient id="b8924fe1-17d3-4197-9f05-2fcb04002c71" cx="247.41" cy="327.17" r="10.12" xlink:href="#bc9995fd-dce6-4c4b-9bfe-8f4fe801868e"/><radialGradient id="e763448d-b08f-46e8-bae4-02e25e3e163c" cx="241.8" cy="324.45" r="4.56" xlink:href="#bc9995fd-dce6-4c4b-9bfe-8f4fe801868e"/></defs><g style="isolation:isolate"><g id="bd37dca5-fb68-49a2-a5c4-3ce7518a4296" data-name="BACKGROUND"><rect width="750" height="500" fill="#17203e"/></g><g id="ec8887e7-8d2c-4df3-9f66-e12e178baad1" data-name="OBJECTS"><g opacity="0.25"><path d="M655.71,296.56l-1-.05c-.09,1.88-.2,3.77-.31,5.65l1,.06C655.51,300.33,655.62,298.45,655.71,296.56Z" fill="#fff"/><path d="M656.48,273.89h-1c0,1.89-.07,3.77-.12,5.66l1,0C656.41,277.67,656.45,275.79,656.48,273.89Z" fill="#fff"/><path d="M608.41,25l.91-.41c-.77-1.73-1.55-3.46-2.34-5.17l-.9.42Q607.25,22.45,608.41,25Z" fill="#fff"/><path d="M656.57,262.55v-.49h-1v.49c0,1.89,0,3.78,0,5.67h1C656.57,266.34,656.57,264.45,656.57,262.55Z" fill="#fff"/><path d="M656.19,285.23l-1,0c-.06,1.89-.13,3.78-.21,5.66l1,0C656.06,289,656.13,287.12,656.19,285.23Z" fill="#fff"/><path d="M603.68,14.75l.9-.43q-1.22-2.57-2.46-5.11l-.9.45Q602.46,12.18,603.68,14.75Z" fill="#fff"/><path d="M598.69,4.59l.89-.45Q598.53,2.06,597.45,0h-1.12Q597.52,2.28,598.69,4.59Z" fill="#fff"/><path d="M635.65,99.45c-.49-1.83-1-3.65-1.5-5.47l-1,.27q.77,2.72,1.5,5.46Z" fill="#fff"/><path d="M631.11,441.55l-1-.29c-.54,1.81-1.1,3.62-1.66,5.41l1,.3C630,445.17,630.56,443.36,631.11,441.55Z" fill="#fff"/><path d="M632.58,88.53c-.53-1.82-1.06-3.63-1.61-5.44l-1,.29q.82,2.7,1.61,5.43Z" fill="#fff"/><path d="M637.22,419.71l-1-.25q-.71,2.75-1.44,5.47l1,.26C636.26,423.37,636.75,421.54,637.22,419.71Z" fill="#fff"/><path d="M634.28,430.66l-1-.27c-.51,1.82-1,3.64-1.55,5.44l1,.28C633.25,434.3,633.77,432.49,634.28,430.66Z" fill="#fff"/><path d="M638.49,110.43q-.69-2.76-1.39-5.5l-1,.25q.71,2.73,1.39,5.49Z" fill="#fff"/><path d="M641.12,121.46c-.43-1.85-.85-3.69-1.29-5.52l-1,.23q.64,2.74,1.28,5.51Z" fill="#fff"/><path d="M642.45,397.64l-1-.21c-.4,1.84-.81,3.69-1.22,5.52l1,.22Q641.85,400.41,642.45,397.64Z" fill="#fff"/><path d="M639.94,408.7l-1-.23q-.66,2.76-1.33,5.5l1,.24Q639.28,411.47,639.94,408.7Z" fill="#fff"/><path d="M629.3,77.67q-.85-2.7-1.73-5.4l-1,.31c.58,1.79,1.16,3.59,1.72,5.39Z" fill="#fff"/><path d="M610.67,30.22c.75,1.73,1.48,3.47,2.21,5.21l.92-.38q-1.08-2.62-2.21-5.22Z" fill="#fff"/><path d="M618,45.57c-.69-1.77-1.39-3.52-2.09-5.27l-.93.37c.7,1.75,1.4,3.5,2.08,5.26Z" fill="#fff"/><path d="M616.13,484.36l-.93-.37q-1.05,2.63-2.13,5.24l.92.38C614.71,487.87,615.43,486.12,616.13,484.36Z" fill="#fff"/><path d="M620.23,473.78l-.93-.35c-.67,1.77-1.34,3.54-2,5.29l.93.36C618.89,477.33,619.57,475.56,620.23,473.78Z" fill="#fff"/><path d="M625.78,66.89c-.61-1.79-1.22-3.58-1.85-5.36l-.94.33c.62,1.78,1.24,3.56,1.84,5.35Z" fill="#fff"/><path d="M643.52,132.54q-.57-2.78-1.18-5.55l-1,.22q.6,2.76,1.17,5.53Z" fill="#fff"/><path d="M622,56.19c-.65-1.78-1.31-3.56-2-5.32l-.93.35q1,2.64,2,5.31Z" fill="#fff"/><path d="M627.72,452.37l-1-.31q-.88,2.7-1.78,5.38l.94.32C626.54,456,627.13,454.17,627.72,452.37Z" fill="#fff"/><path d="M624.09,463.12l-.94-.33q-.95,2.67-1.9,5.33l.94.34C622.83,466.69,623.47,464.91,624.09,463.12Z" fill="#fff"/><path d="M644.74,386.53l-1-.19c-.36,1.86-.74,3.71-1.12,5.55l1,.2C644,390.25,644.38,388.39,644.74,386.53Z" fill="#fff"/><path d="M648.7,364.2l-1-.16c-.29,1.87-.6,3.73-.91,5.59l1,.17Q648.26,367,648.7,364.2Z" fill="#fff"/><path d="M645.75,149.42c.33,1.85.66,3.71,1,5.58l1-.17q-.48-2.81-1-5.59Z" fill="#fff"/><path d="M650.79,183l.66,5.62,1-.11c-.21-1.89-.43-3.76-.66-5.64Z" fill="#fff"/><path d="M649.31,171.78c.26,1.87.52,3.74.76,5.61l1-.13q-.37-2.82-.77-5.62Z" fill="#fff"/><path d="M647.64,160.58q.43,2.79.86,5.6l1-.15q-.42-2.81-.87-5.6Z" fill="#fff"/><path d="M655,307.88l-1-.07c-.13,1.88-.26,3.77-.41,5.64l1,.08C654.77,311.65,654.91,309.76,655,307.88Z" fill="#fff"/><path d="M650.37,353l-1-.14q-.39,2.81-.81,5.6l1,.15Q650,355.8,650.37,353Z" fill="#fff"/><path d="M653.1,330.47l-1-.1c-.2,1.88-.4,3.75-.61,5.63l1,.11Q652.82,333.29,653.1,330.47Z" fill="#fff"/><path d="M651.84,341.74l-1-.12c-.22,1.88-.46,3.75-.7,5.62l1,.13Q651.49,344.57,651.84,341.74Z" fill="#fff"/><path d="M654.17,319.18l-1-.08q-.24,2.82-.5,5.64l1,.09Q653.93,322,654.17,319.18Z" fill="#fff"/><path d="M646.82,375.38l-1-.17q-.5,2.79-1,5.57l1,.18C646.16,379.11,646.49,377.25,646.82,375.38Z" fill="#fff"/><path d="M655.18,239.43c.06,1.88.12,3.77.17,5.66l1,0c-.05-1.89-.11-3.78-.17-5.67Z" fill="#fff"/><path d="M644.65,138.1l-1,.19q.54,2.78,1.07,5.56l1-.18C645.37,141.8,645,140,644.65,138.1Z" fill="#fff"/><path d="M656.55,256.39c0-1.89,0-3.78-.08-5.66l-1,0c0,1.88.06,3.76.08,5.65Z" fill="#fff"/><path d="M652.06,194.26q.29,2.81.56,5.63l1-.1q-.27-2.82-.57-5.64Z" fill="#fff"/><path d="M653.13,205.53c.16,1.87.32,3.76.47,5.64l1-.08q-.23-2.84-.46-5.65Z" fill="#fff"/><path d="M654,216.81c.13,1.88.25,3.77.36,5.65l1-.06q-.17-2.84-.36-5.65Z" fill="#fff"/><path d="M654.69,228.12c.1,1.88.19,3.76.27,5.65l1,0c-.09-1.89-.17-3.78-.27-5.67Z" fill="#fff"/><path d="M611.79,494.83l-.92-.39c-.75,1.74-1.5,3.47-2.27,5.19l.84.37h.09Q610.67,497.44,611.79,494.83Z" fill="#fff"/><path d="M492.83,171.78c.26,1.87.52,3.74.76,5.61l1-.13c-.24-1.88-.5-3.75-.76-5.62Z" fill="#fff"/><path d="M499.71,285.23l-1,0c-.06,1.89-.13,3.78-.21,5.66l1,0C499.58,289,499.65,287.12,499.71,285.23Z" fill="#fff"/><path d="M500,273.89h-1c0,1.89-.07,3.77-.12,5.66l1,0C499.93,277.67,500,275.79,500,273.89Z" fill="#fff"/><path d="M500.09,262.55v-.49h-1v.49c0,1.89,0,3.78,0,5.67h1C500.09,266.34,500.09,264.45,500.09,262.55Z" fill="#fff"/><path d="M499.23,296.56l-1-.05c-.09,1.88-.2,3.77-.31,5.65l1,.06C499,300.33,499.14,298.45,499.23,296.56Z" fill="#fff"/><path d="M443.11,4.14Q442,2.06,441,0h-1.12q1.18,2.28,2.36,4.59Z" fill="#fff"/><path d="M447.2,14.75l.9-.43q-1.22-2.57-2.46-5.1l-.9.44Q446,12.18,447.2,14.75Z" fill="#fff"/><path d="M451.93,25l.91-.41c-.77-1.73-1.55-3.46-2.34-5.17l-.9.42Q450.77,22.45,451.93,25Z" fill="#fff"/><path d="M498.56,307.88l-1-.07c-.13,1.88-.27,3.77-.41,5.64l1,.08C498.29,311.65,498.43,309.76,498.56,307.88Z" fill="#fff"/><path d="M491.16,160.58q.43,2.79.86,5.6l1-.15q-.42-2.81-.87-5.6Z" fill="#fff"/><path d="M489.27,149.42c.33,1.85.66,3.71,1,5.58l1-.17q-.48-2.81-1-5.59Z" fill="#fff"/><path d="M494.31,183l.66,5.62,1-.11q-.31-2.82-.66-5.63Z" fill="#fff"/><path d="M496.62,330.47l-1-.1c-.2,1.88-.4,3.75-.61,5.63l1,.11Q496.34,333.29,496.62,330.47Z" fill="#fff"/><path d="M497.69,319.18l-1-.08q-.24,2.82-.51,5.64l1,.09Q497.45,322,497.69,319.18Z" fill="#fff"/><path d="M495.58,194.26q.29,2.81.56,5.63l1-.09q-.25-2.84-.56-5.65Z" fill="#fff"/><path d="M495.36,341.74l-1-.12c-.22,1.88-.46,3.75-.7,5.62l1,.13Q495,344.57,495.36,341.74Z" fill="#fff"/><path d="M493.89,353l-1-.14q-.39,2.81-.81,5.6l1,.15Q493.5,355.8,493.89,353Z" fill="#fff"/><path d="M492.22,364.2l-1-.16c-.29,1.87-.6,3.73-.91,5.59l1,.17Q491.78,367,492.22,364.2Z" fill="#fff"/><path d="M459.65,484.36l-.93-.37q-1.05,2.63-2.13,5.24l.92.38C458.23,487.87,459,486.12,459.65,484.36Z" fill="#fff"/><path d="M454.19,30.22c.75,1.73,1.48,3.47,2.21,5.21l.92-.38c-.73-1.75-1.46-3.49-2.21-5.22Z" fill="#fff"/><path d="M461.56,45.57c-.69-1.77-1.39-3.52-2.09-5.27l-.93.37c.7,1.75,1.4,3.5,2.08,5.26Z" fill="#fff"/><path d="M467.61,463.12l-.94-.33q-.94,2.67-1.9,5.33l.94.34C466.35,466.69,467,464.91,467.61,463.12Z" fill="#fff"/><path d="M463.75,473.78l-.93-.35c-.67,1.77-1.34,3.54-2,5.29l.93.36C462.41,477.33,463.09,475.56,463.75,473.78Z" fill="#fff"/><path d="M469.3,66.89c-.61-1.79-1.22-3.58-1.85-5.36l-.94.33c.62,1.78,1.24,3.56,1.84,5.35Z" fill="#fff"/><path d="M465.55,56.19c-.65-1.78-1.3-3.56-2-5.32l-.93.35q1,2.64,2,5.31Z" fill="#fff"/><path d="M496.65,205.53q.24,2.81.47,5.64l1-.08q-.23-2.84-.46-5.65Z" fill="#fff"/><path d="M471.24,452.37l-.95-.31q-.89,2.7-1.78,5.38l.94.32C470.06,456,470.65,454.17,471.24,452.37Z" fill="#fff"/><path d="M488.26,386.53l-1-.19c-.36,1.86-.74,3.71-1.12,5.55l1,.2C487.52,390.25,487.9,388.39,488.26,386.53Z" fill="#fff"/><path d="M490.34,375.38l-1-.17q-.5,2.79-1,5.57l1,.18C489.68,379.11,490,377.25,490.34,375.38Z" fill="#fff"/><path d="M488.17,138.1l-1,.19q.54,2.78,1.07,5.56l1-.18Q488.72,140.88,488.17,138.1Z" fill="#fff"/><path d="M472.82,77.67q-.85-2.7-1.73-5.4l-1,.31c.59,1.79,1.16,3.59,1.73,5.39Z" fill="#fff"/><path d="M500.07,256.39c0-1.89-.05-3.78-.08-5.66l-1,0c0,1.88.06,3.76.08,5.65Z" fill="#fff"/><path d="M498.7,239.43c.06,1.88.12,3.77.17,5.66l1,0c-.05-1.89-.11-3.78-.17-5.67Z" fill="#fff"/><path d="M497.53,216.82c.13,1.87.25,3.76.36,5.64l1-.05q-.17-2.83-.36-5.66Z" fill="#fff"/><path d="M498.21,228.12c.1,1.88.19,3.76.27,5.65l1,0-.27-5.67Z" fill="#fff"/><path d="M486,397.64l-1-.21c-.4,1.84-.81,3.69-1.22,5.52l1,.22Q485.37,400.41,486,397.64Z" fill="#fff"/><path d="M487,132.54q-.57-2.78-1.18-5.55l-1,.22q.6,2.76,1.17,5.53Z" fill="#fff"/><path d="M479.17,99.45c-.49-1.83-1-3.65-1.5-5.47l-1,.27q.76,2.72,1.5,5.46Z" fill="#fff"/><path d="M477.8,430.66l-1-.27c-.51,1.82-1,3.64-1.55,5.44l1,.28C476.77,434.3,477.29,432.49,477.8,430.66Z" fill="#fff"/><path d="M484.63,121.46c-.42-1.85-.84-3.69-1.28-5.52l-1,.23q.64,2.74,1.28,5.51Z" fill="#fff"/><path d="M474.63,441.55l-1-.29c-.55,1.81-1.1,3.62-1.66,5.41l.95.3C473.53,445.17,474.08,443.36,474.63,441.55Z" fill="#fff"/><path d="M476.11,88.53q-.8-2.73-1.62-5.44l-1,.29q.83,2.7,1.62,5.43Z" fill="#fff"/><path d="M480.74,419.71l-1-.25q-.7,2.75-1.44,5.47l1,.26Q480,422.46,480.74,419.71Z" fill="#fff"/><path d="M483.46,408.7l-1-.23q-.66,2.76-1.33,5.5l1,.24Q482.8,411.47,483.46,408.7Z" fill="#fff"/><path d="M482,110.43q-.69-2.76-1.39-5.5l-1,.25q.71,2.73,1.39,5.49Z" fill="#fff"/><path d="M455.3,494.83l-.91-.39c-.75,1.74-1.5,3.47-2.27,5.19l.84.37h.09Q454.19,497.44,455.3,494.83Z" fill="#fff"/><path d="M544.53,484.36l-.93-.37q-1.05,2.63-2.13,5.24l.92.38C543.11,487.87,543.83,486.12,544.53,484.36Z" fill="#fff"/><path d="M554.18,66.89c-.61-1.79-1.22-3.58-1.85-5.36l-.94.33c.62,1.78,1.24,3.56,1.84,5.35Z" fill="#fff"/><path d="M548.63,473.78l-.93-.35c-.67,1.77-1.34,3.54-2,5.29l.93.36C547.29,477.33,548,475.56,548.63,473.78Z" fill="#fff"/><path d="M550.43,56.19c-.65-1.78-1.31-3.56-2-5.32l-.93.35q1,2.64,2,5.31Z" fill="#fff"/><path d="M556.12,452.37l-1-.31q-.88,2.7-1.78,5.38l.94.32C554.94,456,555.53,454.17,556.12,452.37Z" fill="#fff"/><path d="M552.49,463.12l-.94-.33q-.94,2.67-1.9,5.33l.94.34C551.23,466.69,551.87,464.91,552.49,463.12Z" fill="#fff"/><path d="M562.68,430.66l-1-.27c-.51,1.82-1,3.64-1.55,5.44l1,.28C561.65,434.3,562.17,432.49,562.68,430.66Z" fill="#fff"/><path d="M557.7,77.67q-.86-2.7-1.73-5.4l-1,.31q.87,2.69,1.72,5.39Z" fill="#fff"/><path d="M561,88.53c-.53-1.82-1.06-3.63-1.61-5.44l-1,.29q.83,2.7,1.61,5.43Z" fill="#fff"/><path d="M564.05,99.45c-.49-1.83-1-3.65-1.51-5.47l-1,.27q.76,2.72,1.5,5.46Z" fill="#fff"/><path d="M546.44,45.57c-.69-1.77-1.39-3.52-2.09-5.27l-.93.37c.7,1.75,1.4,3.5,2.08,5.26Z" fill="#fff"/><path d="M539.08,30.22q1.11,2.59,2.2,5.21l.92-.38q-1.08-2.62-2.21-5.22Z" fill="#fff"/><path d="M559.51,441.55l-1-.29c-.55,1.81-1.1,3.62-1.66,5.41l1,.3C558.41,445.17,559,443.36,559.51,441.55Z" fill="#fff"/><path d="M581.53,205.53q.24,2.81.47,5.64l1-.08q-.22-2.84-.46-5.65Z" fill="#fff"/><path d="M580.46,194.26q.28,2.81.56,5.63l1-.1c-.18-1.88-.36-3.76-.56-5.64Z" fill="#fff"/><path d="M582.41,216.82c.13,1.87.25,3.76.36,5.64l1-.06c-.11-1.88-.23-3.77-.36-5.65Z" fill="#fff"/><path d="M585,256.39c0-1.89-.05-3.78-.08-5.66l-1,0c0,1.88.06,3.76.08,5.65Z" fill="#fff"/><path d="M583.09,228.12c.1,1.88.19,3.76.27,5.65l1,0c-.09-1.89-.17-3.78-.27-5.67Z" fill="#fff"/><path d="M579.19,183l.66,5.62,1-.11c-.21-1.89-.43-3.76-.66-5.64Z" fill="#fff"/><path d="M576,160.58q.44,2.79.86,5.6l1-.15q-.42-2.81-.87-5.6Z" fill="#fff"/><path d="M574.16,149.42q.5,2.78,1,5.58l1-.17q-.48-2.81-1-5.59Z" fill="#fff"/><path d="M577.71,171.78c.26,1.86.52,3.73.76,5.61l1-.13q-.37-2.82-.77-5.62Z" fill="#fff"/><path d="M583.58,239.43c.06,1.88.12,3.77.17,5.66l1,0c0-1.89-.11-3.78-.17-5.67Z" fill="#fff"/><path d="M569.51,121.46c-.42-1.85-.84-3.69-1.28-5.52l-1,.23q.65,2.74,1.28,5.51Z" fill="#fff"/><path d="M568.34,408.7l-1-.23q-.66,2.76-1.33,5.5l1,.24Q567.69,411.47,568.34,408.7Z" fill="#fff"/><path d="M566.89,110.43c-.46-1.84-.92-3.68-1.39-5.5l-1,.25q.71,2.73,1.39,5.49Z" fill="#fff"/><path d="M570.85,397.64l-1-.21c-.4,1.84-.81,3.69-1.22,5.52l1,.22Q570.25,400.41,570.85,397.64Z" fill="#fff"/><path d="M575.22,375.38l-1-.17q-.5,2.79-1,5.57l1,.18C574.56,379.11,574.89,377.25,575.22,375.38Z" fill="#fff"/><path d="M565.62,419.71l-1-.25q-.71,2.75-1.44,5.47l1,.26Q564.91,422.46,565.62,419.71Z" fill="#fff"/><path d="M573.05,138.1l-1,.19q.54,2.78,1.07,5.56l1-.18C573.77,141.8,573.41,140,573.05,138.1Z" fill="#fff"/><path d="M573.14,386.53l-1-.19c-.36,1.86-.74,3.71-1.12,5.55l1,.2C572.4,390.25,572.78,388.39,573.14,386.53Z" fill="#fff"/><path d="M571.92,132.54q-.57-2.78-1.17-5.55l-1,.22q.6,2.76,1.17,5.53Z" fill="#fff"/><path d="M577.1,364.2l-1-.16c-.29,1.87-.6,3.73-.91,5.59l1,.17Q576.66,367,577.1,364.2Z" fill="#fff"/><path d="M578.77,353l-1-.14q-.39,2.81-.81,5.6l1,.15Q578.38,355.8,578.77,353Z" fill="#fff"/><path d="M532.08,14.75l.9-.43q-1.22-2.57-2.46-5.11l-.9.45Q530.87,12.18,532.08,14.75Z" fill="#fff"/><path d="M528,4.14Q526.93,2.06,525.85,0h-1.13q1.2,2.28,2.37,4.59Z" fill="#fff"/><path d="M585,262.55v-.49h-1v.49c0,1.89,0,3.78,0,5.67h1C585,266.34,585,264.45,585,262.55Z" fill="#fff"/><path d="M582.57,319.18l-1-.08q-.24,2.82-.51,5.64l1,.09Q582.33,322,582.57,319.18Z" fill="#fff"/><path d="M581.5,330.47l-1-.1c-.2,1.88-.4,3.75-.61,5.63l1,.11Q581.22,333.29,581.5,330.47Z" fill="#fff"/><path d="M583.44,307.88l-1-.07c-.13,1.88-.27,3.77-.41,5.64l1,.08C583.17,311.65,583.31,309.76,583.44,307.88Z" fill="#fff"/><path d="M580.24,341.74l-1-.12c-.22,1.88-.46,3.75-.7,5.62l1,.13Q579.89,344.57,580.24,341.74Z" fill="#fff"/><path d="M584.88,273.89h-1c0,1.89-.07,3.77-.12,5.66l1,0C584.81,277.67,584.85,275.79,584.88,273.89Z" fill="#fff"/><path d="M584.11,296.56l-1-.05c-.09,1.88-.2,3.77-.31,5.65l1,.06C583.91,300.33,584,298.45,584.11,296.56Z" fill="#fff"/><path d="M584.59,285.23l-1,0c-.06,1.89-.13,3.78-.21,5.66l1,0C584.46,289,584.53,287.12,584.59,285.23Z" fill="#fff"/><path d="M536.81,25l.91-.41c-.77-1.73-1.55-3.46-2.34-5.17l-.9.42Q535.65,22.45,536.81,25Z" fill="#fff"/><path d="M539.27,494.44c-.75,1.74-1.5,3.47-2.27,5.19l.84.37h.09q1.14-2.56,2.26-5.17Z" fill="#fff"/><path d="M708.74,149.42q.5,2.78,1,5.58l1-.17q-.48-2.81-1-5.58Z" fill="#fff"/><path d="M710.62,160.59q.43,2.79.86,5.59l1-.15q-.42-2.81-.87-5.6Z" fill="#fff"/><path d="M712.29,171.78c.26,1.87.52,3.74.76,5.61l1-.13q-.37-2.82-.77-5.62Z" fill="#fff"/><path d="M713.77,183l.66,5.62,1-.11q-.31-2.82-.66-5.63Z" fill="#fff"/><path d="M717.15,319.18l-1-.08q-.24,2.82-.51,5.64l1,.09Q716.91,322,717.15,319.18Z" fill="#fff"/><path d="M706.6,392.09c.38-1.84.76-3.7,1.12-5.56l-1-.19c-.36,1.86-.74,3.71-1.12,5.55Z" fill="#fff"/><path d="M704.2,403.17q.63-2.76,1.23-5.53l-1-.21c-.4,1.84-.81,3.69-1.22,5.52Z" fill="#fff"/><path d="M708.79,381c.35-1.85.68-3.71,1-5.58l-1-.17q-.5,2.79-1,5.57Z" fill="#fff"/><path d="M706.65,138.29q.54,2.78,1.07,5.56l1-.18q-.53-2.79-1.07-5.57Z" fill="#fff"/><path d="M715,194.26q.29,2.81.56,5.63l1-.09q-.27-2.84-.57-5.65Z" fill="#fff"/><path d="M718.69,296.56l-1-.05c-.09,1.88-.2,3.77-.31,5.65l1,.06C718.49,300.33,718.6,298.45,718.69,296.56Z" fill="#fff"/><path d="M719.17,285.23l-1,0c-.06,1.89-.13,3.78-.21,5.66l1,0C719,289,719.11,287.12,719.17,285.23Z" fill="#fff"/><path d="M718,307.88l-1-.07c-.13,1.88-.27,3.77-.41,5.64l1,.08C717.75,311.65,717.89,309.76,718,307.88Z" fill="#fff"/><path d="M719.46,273.89h-1c0,1.89-.07,3.77-.12,5.66l1,0C719.39,277.67,719.43,275.79,719.46,273.89Z" fill="#fff"/><path d="M719.45,250.73l-1,0c0,1.88.06,3.76.08,5.65h1C719.51,254.5,719.48,252.61,719.45,250.73Z" fill="#fff"/><path d="M717.67,228.12c.1,1.88.19,3.76.27,5.65l1,0c-.09-1.89-.17-3.78-.27-5.66Z" fill="#fff"/><path d="M717,216.82q.19,2.82.36,5.65l1-.06q-.17-2.83-.36-5.66Z" fill="#fff"/><path d="M716.11,205.53c.16,1.87.32,3.76.47,5.64l1-.08c-.15-1.88-.3-3.77-.46-5.65Z" fill="#fff"/><path d="M718.16,239.43c.06,1.88.12,3.77.17,5.66l1,0c-.05-1.89-.11-3.78-.17-5.67Z" fill="#fff"/><path d="M704.35,127.21c.4,1.84.79,3.68,1.17,5.54l1-.21q-.57-2.78-1.17-5.54Z" fill="#fff"/><path d="M678,40.67c.71,1.75,1.4,3.5,2.09,5.27l.93-.37c-.69-1.76-1.38-3.52-2.09-5.27Z" fill="#fff"/><path d="M682.11,51.22q1,2.64,2,5.31l.94-.34c-.65-1.78-1.3-3.56-2-5.32Z" fill="#fff"/><path d="M681.19,479.08c.68-1.75,1.36-3.52,2-5.3l-.93-.35c-.67,1.77-1.34,3.54-2,5.29Z" fill="#fff"/><path d="M685.17,468.46c.64-1.77,1.28-3.55,1.9-5.34l-.94-.33q-.95,2.67-1.9,5.33Z" fill="#fff"/><path d="M718.55,262.06v.49c0,1.89,0,3.78,0,5.67h1c0-1.88,0-3.77,0-5.67v-.49Z" fill="#fff"/><path d="M686,61.86c.62,1.78,1.24,3.56,1.84,5.35l1-.32c-.61-1.79-1.22-3.58-1.85-5.36Z" fill="#fff"/><path d="M661.67,4.59l.9-.45Q661.51,2.06,660.43,0H659.3Q660.5,2.28,661.67,4.59Z" fill="#fff"/><path d="M673.66,30.22q1.11,2.59,2.2,5.21l.92-.38q-1.08-2.62-2.21-5.22Z" fill="#fff"/><path d="M677,489.61c.72-1.74,1.44-3.49,2.14-5.25l-.93-.37q-1,2.63-2.13,5.24Z" fill="#fff"/><path d="M693,83.38q.82,2.7,1.61,5.43l1-.28c-.53-1.82-1.06-3.63-1.61-5.44Z" fill="#fff"/><path d="M698.75,425.19q.74-2.73,1.45-5.48l-1-.25q-.71,2.75-1.44,5.47Z" fill="#fff"/><path d="M699.11,105.18q.71,2.73,1.39,5.49l1-.24q-.69-2.76-1.39-5.5Z" fill="#fff"/><path d="M688.91,457.76c.61-1.79,1.2-3.59,1.79-5.39l-1-.31q-.88,2.7-1.78,5.38Z" fill="#fff"/><path d="M701.59,414.21q.67-2.74,1.33-5.51l-1-.23q-.66,2.76-1.33,5.5Z" fill="#fff"/><path d="M689.6,72.59q.87,2.67,1.72,5.39l1-.3q-.85-2.72-1.73-5.41Z" fill="#fff"/><path d="M692.42,447c.57-1.8,1.12-3.61,1.67-5.42l-1-.29q-.82,2.72-1.66,5.41Z" fill="#fff"/><path d="M695.7,436.11c.53-1.81,1-3.62,1.56-5.45l-1-.27c-.51,1.82-1,3.64-1.55,5.44Z" fill="#fff"/><path d="M701.84,116.17q.64,2.74,1.28,5.51l1-.22c-.42-1.85-.84-3.69-1.28-5.52Z" fill="#fff"/><path d="M696.16,94.25q.76,2.72,1.5,5.46l1-.26c-.49-1.83-1-3.65-1.51-5.47Z" fill="#fff"/><path d="M670,19.46l-.9.42q1.17,2.57,2.33,5.16l.91-.41C671.53,22.9,670.75,21.17,670,19.46Z" fill="#fff"/><path d="M665.1,9.22l-.9.44q1.24,2.52,2.46,5.09l.9-.43Q666.35,11.76,665.1,9.22Z" fill="#fff"/><path d="M716.08,330.47l-1-.1c-.2,1.88-.4,3.75-.61,5.63l1,.11Q715.8,333.29,716.08,330.47Z" fill="#fff"/><path d="M674.76,494.83l-.91-.39c-.75,1.74-1.5,3.47-2.27,5.19l.84.37h.09Q673.65,497.44,674.76,494.83Z" fill="#fff"/><path d="M709.78,369.63l1,.17q.47-2.79.91-5.6l-1-.16C710.4,365.91,710.09,367.77,709.78,369.63Z" fill="#fff"/><path d="M714.82,341.74l-1-.12c-.22,1.88-.46,3.75-.7,5.62l1,.13Q714.47,344.57,714.82,341.74Z" fill="#fff"/><path d="M713.35,353l-1-.14q-.39,2.81-.81,5.6l1,.15Q713,355.8,713.35,353Z" fill="#fff"/><path d="M49.4,500h.45l-.08-.16Z" fill="#fff"/><path d="M346.35,15.43q-1.47-2.44-3-4.85l-.85.53q1.5,2.4,3,4.84Z" fill="#fff"/><path d="M355,469.31l-.88-.48q-1.35,2.51-2.73,5l.87.49C353.23,472.65,354.14,471,355,469.31Z" fill="#fff"/><path d="M357.48,35.3q-1.32-2.53-2.67-5l-.88.47c.9,1.66,1.78,3.34,2.66,5Z" fill="#fff"/><path d="M352.07,25.28q-1.4-2.49-2.82-5l-.87.51q1.42,2.44,2.82,4.93Z" fill="#fff"/><path d="M349.49,479.25l-.86-.5c-.95,1.64-1.92,3.27-2.89,4.89l.86.51Q348.07,481.72,349.49,479.25Z" fill="#fff"/><path d="M360.29,459.2l-.9-.45q-1.27,2.55-2.58,5.06l.89.46Q359,461.75,360.29,459.2Z" fill="#fff"/><path d="M343.63,489l-.85-.53q-1.5,2.41-3,4.8l.84.54C341.61,492.23,342.63,490.63,343.63,489Z" fill="#fff"/><path d="M336.36,1.58q1.58,2.34,3.12,4.74l.84-.55c-1-1.59-2.07-3.18-3.13-4.75Z" fill="#fff"/><path d="M388.83,384.93l-1-.27q-.76,2.73-1.58,5.45l1,.29Q388.06,387.67,388.83,384.93Z" fill="#fff"/><path d="M383.73,98.27q-.87-2.72-1.79-5.4l-.95.32q.92,2.69,1.79,5.39Z" fill="#fff"/><path d="M385.6,395.84l-1-.3c-.56,1.82-1.14,3.62-1.72,5.42l.95.31Q384.77,398.57,385.6,395.84Z" fill="#fff"/><path d="M390.22,120.09q-.74-2.75-1.52-5.48l-1,.27c.52,1.82,1,3.64,1.52,5.47Z" fill="#fff"/><path d="M362.59,45.47q-1.24-2.56-2.52-5.1l-.89.45c.84,1.68,1.68,3.38,2.5,5.09Z" fill="#fff"/><path d="M395.62,142.21q-.6-2.79-1.25-5.56l-1,.23c.43,1.84.84,3.69,1.25,5.54Z" fill="#fff"/><path d="M391.79,373.94l-1-.25q-.7,2.76-1.44,5.49l1,.26Q391.08,376.7,391.79,373.94Z" fill="#fff"/><path d="M394.48,362.88l-1-.23c-.43,1.85-.86,3.69-1.31,5.53l1,.23C393.62,366.57,394.05,364.73,394.48,362.88Z" fill="#fff"/><path d="M393.06,131.12c-.45-1.85-.92-3.69-1.39-5.52l-1,.24q.71,2.75,1.39,5.51Z" fill="#fff"/><path d="M387.12,109.14c-.55-1.82-1.1-3.64-1.66-5.44l-1,.29c.56,1.81,1.12,3.62,1.66,5.44Z" fill="#fff"/><path d="M371.91,66.24q-1.1-2.62-2.22-5.24l-.92.4Q369.9,64,371,66.63Z" fill="#fff"/><path d="M367.39,55.79c-.78-1.73-1.56-3.46-2.36-5.17l-.91.42c.8,1.71,1.58,3.43,2.36,5.16Z" fill="#fff"/><path d="M369.88,438.55l-.92-.39q-1.12,2.61-2.28,5.2l.91.41C368.36,442,369.13,440.3,369.88,438.55Z" fill="#fff"/><path d="M365.23,449l-.91-.43q-1.2,2.6-2.43,5.14l.9.43C363.62,452.39,364.43,450.67,365.23,449Z" fill="#fff"/><path d="M376.13,76.81q-1-2.66-2.07-5.3l-.93.38q1,2.63,2.07,5.28Z" fill="#fff"/><path d="M378.31,417.41l-.94-.35c-.66,1.78-1.32,3.55-2,5.32l.94.36Q377.32,420.09,378.31,417.41Z" fill="#fff"/><path d="M380.08,87.49q-1-2.68-1.94-5.35l-.94.35q1,2.66,1.93,5.34Z" fill="#fff"/><path d="M382.09,406.67l-.94-.32q-.91,2.7-1.86,5.37l.95.33C380.87,410.27,381.49,408.47,382.09,406.67Z" fill="#fff"/><path d="M374.24,428l-.93-.37q-1.06,2.64-2.14,5.26l.92.38C372.82,431.56,373.53,429.8,374.24,428Z" fill="#fff"/><path d="M396.91,351.75l-1-.2q-.57,2.79-1.17,5.56l1,.21C396.13,355.47,396.52,353.62,396.91,351.75Z" fill="#fff"/><path d="M397.92,153.35q-.54-2.79-1.11-5.58l-1,.2q.57,2.78,1.11,5.57Z" fill="#fff"/><path d="M405.1,295.47l-1-.09c-.16,1.89-.34,3.77-.53,5.66l1,.09Q404.84,298.31,405.1,295.47Z" fill="#fff"/><path d="M404,306.79l-1-.11q-.32,2.83-.66,5.65l1,.12Q403.65,309.63,404,306.79Z" fill="#fff"/><path d="M402.59,318.09l-1-.13q-.37,2.82-.78,5.62l1,.15Q402.22,320.91,402.59,318.09Z" fill="#fff"/><path d="M406,284.12l-1-.07c-.12,1.9-.26,3.79-.4,5.67l1,.08C405.71,287.91,405.84,286,406,284.12Z" fill="#fff"/><path d="M401,329.36l-1-.16c-.29,1.88-.6,3.74-.91,5.61l1,.16C400.36,333.11,400.66,331.23,401,329.36Z" fill="#fff"/><path d="M406.59,272.75l-1,0c-.08,1.9-.17,3.79-.28,5.67l1,.06C406.41,276.55,406.51,274.65,406.59,272.75Z" fill="#fff"/><path d="M407.08,250v-.5h-1v.5c0,1.9,0,3.79,0,5.68h1C407.07,253.8,407.08,251.9,407.08,250Z" fill="#fff"/><path d="M407,261.38l-1,0c0,1.89-.09,3.79-.15,5.68l1,0C406.87,265.18,406.92,263.28,407,261.38Z" fill="#fff"/><path d="M402.93,192.84c.21,1.87.41,3.76.6,5.64l1-.1q-.28-2.83-.6-5.65Z" fill="#fff"/><path d="M407.05,243.81c0-1.89-.06-3.79-.1-5.67l-1,0c0,1.88.07,3.77.1,5.67Z" fill="#fff"/><path d="M405.57,226.81c.08,1.88.16,3.78.22,5.67l1,0c-.06-1.9-.14-3.8-.22-5.69Z" fill="#fff"/><path d="M404.94,215.46c.13,1.89.24,3.78.35,5.67l1,0c-.1-1.9-.22-3.79-.34-5.68Z" fill="#fff"/><path d="M399.06,340.58l-1-.18q-.51,2.81-1.05,5.58l1,.19Q398.55,343.38,399.06,340.58Z" fill="#fff"/><path d="M398,159.12q.51,2.79,1,5.6l1-.17c-.32-1.87-.64-3.74-1-5.6Z" fill="#fff"/><path d="M404.06,204.14c.17,1.88.32,3.77.47,5.66l1-.08q-.22-2.83-.47-5.67Z" fill="#fff"/><path d="M401.54,181.56c.25,1.88.49,3.75.73,5.64l1-.13c-.23-1.88-.48-3.76-.73-5.64Z" fill="#fff"/><path d="M399.89,170.32c.3,1.87.58,3.74.86,5.62l1-.15c-.28-1.88-.56-3.75-.86-5.62Z" fill="#fff"/><path d="M336.63,498c-.45.67-.9,1.32-1.35,2h1.21c.32-.48.65-.94,1-1.42Z" fill="#fff"/><path d="M345.11,243.83c0-1.89-.08-3.78-.14-5.66l-1,0c.06,1.88.11,3.76.14,5.65Z" fill="#fff"/><path d="M345,261.34l-1,0c-.06,1.89-.13,3.77-.21,5.65l1,0C344.86,265.12,344.93,263.23,345,261.34Z" fill="#fff"/><path d="M344.48,272.67l-1-.07q-.17,2.83-.38,5.65l1,.07C344.24,276.44,344.37,274.55,344.48,272.67Z" fill="#fff"/><path d="M345.16,250v-.5h-1v.5c0,1.89,0,3.77,0,5.65l1,0C345.14,253.78,345.16,251.89,345.16,250Z" fill="#fff"/><path d="M338,182q.53,2.78,1,5.56l1-.16q-.48-2.81-1-5.59Z" fill="#fff"/><path d="M339.85,193.19q.42,2.79.81,5.59l1-.14q-.39-2.8-.82-5.61Z" fill="#fff"/><path d="M341.39,204.39c.23,1.86.45,3.74.65,5.61l1-.1q-.3-2.82-.65-5.63Z" fill="#fff"/><path d="M341.72,300.87q.38-2.81.72-5.62l-1-.12q-.34,2.81-.72,5.61Z" fill="#fff"/><path d="M342.59,215.63c.18,1.87.33,3.75.48,5.64l1-.08q-.21-2.83-.47-5.65Z" fill="#fff"/><path d="M339,317.67l-1-.19q-.51,2.79-1.07,5.56l1,.19Q338.51,320.46,339,317.67Z" fill="#fff"/><path d="M340.91,306.48l-1-.15c-.29,1.87-.58,3.73-.9,5.59l1,.16C340.32,310.22,340.62,308.36,340.91,306.48Z" fill="#fff"/><path d="M342.64,283.88c-.17,1.88-.36,3.76-.55,5.63l1,.1q.3-2.81.55-5.64Z" fill="#fff"/><path d="M281.42,47.64q1.66,2.28,3.28,4.61l.82-.58c-1.09-1.55-2.18-3.09-3.29-4.62Z" fill="#fff"/><path d="M292.09,438.49q1.53-2.39,3-4.81l-.85-.52c-1,1.61-2,3.2-3,4.79Z" fill="#fff"/><path d="M298,428.83c1-1.63,1.9-3.27,2.84-4.92l-.87-.49c-.93,1.65-1.88,3.28-2.83,4.9Z" fill="#fff"/><path d="M303.61,419c.9-1.66,1.79-3.32,2.66-5l-.88-.47c-.87,1.68-1.76,3.34-2.65,5Z" fill="#fff"/><path d="M299.76,76.15q1.39,2.46,2.74,4.95l.88-.48q-1.35-2.5-2.75-5Z" fill="#fff"/><path d="M287.88,56.91c1.05,1.57,2.08,3.14,3.1,4.73l.85-.54c-1-1.59-2.06-3.17-3.11-4.74Z" fill="#fff"/><path d="M279.15,457.12q1.71-2.26,3.37-4.57l-.81-.58c-1.11,1.53-2.23,3-3.36,4.55Z" fill="#fff"/><path d="M285.8,447.92c1.07-1.55,2.14-3.11,3.19-4.68l-.83-.56q-1.57,2.35-3.18,4.67Z" fill="#fff"/><path d="M267.45,29.87q1.83,2.14,3.62,4.34l.77-.63q-1.8-2.2-3.63-4.36Z" fill="#fff"/><path d="M337.86,176.29q-.57-2.79-1.17-5.55l-1,.21c.4,1.84.79,3.68,1.17,5.54Z" fill="#fff"/><path d="M336.79,328.78l-1-.21c-.41,1.85-.82,3.69-1.25,5.52l1,.23Q336.2,331.56,336.79,328.78Z" fill="#fff"/><path d="M267.76,469.76q-1.83,2.16-3.7,4.27l.75.66q1.88-2.12,3.72-4.29Z" fill="#fff"/><path d="M343.45,226.91c.12,1.87.22,3.76.31,5.64l1,0c-.09-1.89-.19-3.78-.31-5.66Z" fill="#fff"/><path d="M275.7,461.62l-.79-.62c-1.17,1.48-2.34,3-3.53,4.41l.77.63Q274,463.85,275.7,461.62Z" fill="#fff"/><path d="M294,66.43c1,1.6,2,3.21,2.92,4.83l.86-.51c-1-1.63-1.94-3.24-2.93-4.85Z" fill="#fff"/><path d="M239.7,1.73l.65-.75-1.14-1h-1.54C238.34.58,239,1.14,239.7,1.73Z" fill="#fff"/><path d="M305.16,86.08q1.3,2.51,2.57,5l.9-.45c-.85-1.69-1.71-3.38-2.58-5Z" fill="#fff"/><path d="M259.94,21.42c1.28,1.38,2.54,2.78,3.8,4.19l.75-.67q-1.89-2.11-3.81-4.2Z" fill="#fff"/><path d="M253.15,487.08l-.71-.71c-1.34,1.33-2.68,2.65-4,3.95l.69.72C250.45,489.74,251.81,488.42,253.15,487.08Z" fill="#fff"/><path d="M245,494.92l-.68-.74q-2.09,1.9-4.21,3.77l.66.75Q242.85,496.84,245,494.92Z" fill="#fff"/><path d="M252.8,12.58l-.71.71c1.34,1.32,2.66,2.67,4,4l.72-.69Q254.82,14.58,252.8,12.58Z" fill="#fff"/><path d="M319.26,116.92q1,2.63,2,5.27l.94-.35q-1-2.66-2.05-5.29Z" fill="#fff"/><path d="M322.41,377.7c.66-1.76,1.31-3.54,1.95-5.32l-.94-.34q-1,2.67-1.95,5.31Z" fill="#fff"/><path d="M318.24,388.25c.73-1.74,1.43-3.5,2.13-5.26l-.93-.36q-1,2.63-2.12,5.24Z" fill="#fff"/><path d="M323.25,127.5q1,2.66,1.87,5.34l.95-.32c-.61-1.8-1.24-3.58-1.87-5.36Z" fill="#fff"/><path d="M313.72,398.65c.78-1.72,1.55-3.44,2.31-5.18l-.92-.4q-1.12,2.6-2.3,5.17Z" fill="#fff"/><path d="M310.21,96.2c.82,1.7,1.61,3.4,2.4,5.12l.91-.41q-1.18-2.59-2.4-5.14Z" fill="#fff"/><path d="M308.85,408.89c.84-1.69,1.66-3.39,2.48-5.1l-.91-.43c-.81,1.71-1.63,3.4-2.47,5.09Z" fill="#fff"/><path d="M326.22,367c.61-1.79,1.2-3.58,1.78-5.39l-1-.3q-.85,2.7-1.76,5.37Z" fill="#fff"/><path d="M314.91,106.48q1.14,2.59,2.22,5.2l.93-.38q-1.1-2.62-2.23-5.22Z" fill="#fff"/><path d="M326.9,138.21c.57,1.79,1.13,3.58,1.68,5.39l1-.29c-.55-1.81-1.12-3.61-1.69-5.41Z" fill="#fff"/><path d="M332.79,345.32q.73-2.74,1.42-5.49l-1-.25c-.46,1.84-.93,3.66-1.42,5.48Z" fill="#fff"/><path d="M329.68,356.22c.55-1.8,1.08-3.62,1.6-5.44l-1-.27q-.78,2.72-1.59,5.42Z" fill="#fff"/><path d="M335.44,165.21q-.66-2.76-1.35-5.51l-1,.24q.69,2.75,1.34,5.5Z" fill="#fff"/><path d="M330.18,149q.78,2.72,1.52,5.45l1-.26c-.49-1.83-1-3.65-1.51-5.46Z" fill="#fff"/><path d="M278.06,43.1l.8-.61c-1.15-1.51-2.3-3-3.47-4.49l-.78.62Q276.35,40.84,278.06,43.1Z" fill="#fff"/><path d="M243.91,5.49C245.3,6.76,246.68,8,248,9.35l.69-.73C247.36,7.31,246,6,244.58,4.75Z" fill="#fff"/><path d="M260.67,479.26l.34-.36-.74-.68q-1.92,2.08-3.87,4.12l.72.69,3.55-3.77Z" fill="#fff"/><path d="M141.48,137.17c-1.06-1.57-2.16-3.14-3.27-4.68l-.81.59c1.1,1.53,2.2,3.09,3.25,4.65Z" fill="#fff"/><path d="M127.87,380.77c1.22-1.45,2.44-2.93,3.61-4.39l-.78-.63c-1.17,1.46-2.38,2.93-3.6,4.37Z" fill="#fff"/><path d="M51.31,438.37c-1.7.82-3.42,1.62-5.14,2.4l.41.91q2.6-1.17,5.16-2.41Z" fill="#fff"/><path d="M56.3,63c-1.68-.86-3.4-1.7-5.11-2.52l-.43.9c1.7.82,3.41,1.66,5.09,2.51Z" fill="#fff"/><path d="M61.41,433.21c-1.66.9-3.35,1.79-5,2.64l.46.89c1.67-.85,3.37-1.74,5-2.65Z" fill="#fff"/><path d="M66.34,68.37c-1.66-.94-3.33-1.86-5-2.76l-.47.89c1.65.88,3.32,1.81,5,2.74Z" fill="#fff"/><path d="M107.86,98.47l-.68.74c1.4,1.27,2.8,2.58,4.16,3.89l.69-.73C110.66,101.06,109.26,99.75,107.86,98.47Z" fill="#fff"/><path d="M89.62,84.75c1.52,1.13,3,2.29,4.53,3.45l.61-.79c-1.49-1.16-3-2.33-4.54-3.46Z" fill="#fff"/><path d="M8.21,45.76q2.74.74,5.46,1.51l.28-1q-2.73-.78-5.49-1.52Z" fill="#fff"/><path d="M41,443c-1.73.74-3.5,1.46-5.25,2.16l.37.92c1.76-.69,3.53-1.42,5.27-2.16Z" fill="#fff"/><path d="M46,58.07c-1.72-.77-3.48-1.54-5.23-2.27l-.38.92c1.74.73,3.49,1.49,5.2,2.26Z" fill="#fff"/><path d="M8.8,454.08c-1.83.49-3.66.95-5.5,1.4l.23,1c1.85-.45,3.69-.91,5.52-1.4Z" fill="#fff"/><path d="M19.69,450.9c-1.8.57-3.61,1.13-5.43,1.66l.28,1c1.83-.54,3.64-1.09,5.45-1.66Z" fill="#fff"/><path d="M170.29,204.7c.44,1.83.85,3.69,1.23,5.53l1-.2c-.38-1.85-.8-3.72-1.23-5.56Z" fill="#fff"/><path d="M174.48,221.25c-.28-1.87-.58-3.76-.91-5.62l-1,.17c.33,1.85.63,3.73.91,5.6Z" fill="#fff"/><path d="M175.22,238.31c.11,1.88.2,3.78.26,5.67l1,0c-.06-1.9-.15-3.81-.26-5.7Z" fill="#fff"/><path d="M175.26,272.74l-1-.11c-.22,1.87-.46,3.76-.73,5.62l1,.14C174.8,276.53,175.05,274.63,175.26,272.74Z" fill="#fff"/><path d="M174.23,227c.22,1.87.41,3.77.58,5.64l1-.09c-.16-1.88-.36-3.79-.58-5.67Z" fill="#fff"/><path d="M176.24,261.39l-1-.06c-.1,1.87-.24,3.78-.4,5.66l1,.08C176,265.18,176.13,263.27,176.24,261.39Z" fill="#fff"/><path d="M175.49,255.67l1,0c0-1.9.08-3.82.08-5.7v-.35h-1V250C175.57,251.88,175.54,253.78,175.49,255.67Z" fill="#fff"/><path d="M127.67,119c-1.21-1.44-2.47-2.89-3.74-4.31l-.75.66c1.26,1.42,2.52,2.86,3.73,4.29Z" fill="#fff"/><path d="M138.35,367.32l-.81-.59c-1.1,1.54-2.23,3.07-3.36,4.56l.8.6C136.11,370.4,137.25,368.86,138.35,367.32Z" fill="#fff"/><path d="M144.73,357.9l-.84-.54c-1,1.58-2.06,3.17-3.11,4.73l.83.56C142.66,361.09,143.72,359.49,144.73,357.9Z" fill="#fff"/><path d="M134.82,127.9c-1.14-1.49-2.32-3-3.51-4.49l-.78.62c1.19,1.49,2.36,3,3.49,4.48Z" fill="#fff"/><path d="M147.63,146.77c-1-1.63-2-3.26-3-4.84l-.84.53c1,1.58,2,3.21,3,4.82Z" fill="#fff"/><path d="M159.68,172.48c.74,1.74,1.46,3.5,2.15,5.24l.93-.37c-.69-1.75-1.42-3.52-2.16-5.26Z" fill="#fff"/><path d="M123.4,384.39c-1.25,1.4-2.54,2.81-3.82,4.18l.73.68c1.29-1.37,2.58-2.78,3.83-4.19Z" fill="#fff"/><path d="M170,300.75c.48-1.83.95-3.69,1.38-5.54l-1-.23c-.43,1.84-.9,3.69-1.38,5.51Z" fill="#fff"/><path d="M166.71,311.7c.59-1.79,1.16-3.62,1.7-5.45l-1-.29c-.54,1.82-1.11,3.65-1.69,5.43Z" fill="#fff"/><path d="M103.59,94.68c-1.44-1.25-2.91-2.49-4.37-3.69l-.64.77c1.46,1.2,2.92,2.43,4.35,3.67Z" fill="#fff"/><path d="M71.78,428.44l-.52-.86c-1.61,1-3.25,1.94-4.89,2.88l.5.86C68.51,430.38,70.16,429.41,71.78,428.44Z" fill="#fff"/><path d="M115.66,392.65c-1.32,1.33-2.67,2.67-4,4l.7.72c1.36-1.31,2.72-2.65,4-4Z" fill="#fff"/><path d="M76.1,74.24c-1.6-1-3.23-2-4.85-3l-.51.86c1.61,1,3.24,2,4.82,3Z" fill="#fff"/><path d="M120.07,110.49c-1.3-1.38-2.64-2.76-4-4.11l-.71.7c1.33,1.34,2.66,2.72,4,4.09Z" fill="#fff"/><path d="M90.68,415.71l-.6-.8c-1.51,1.13-3,2.25-4.59,3.34l.58.82C87.61,418,89.16,416.84,90.68,415.71Z" fill="#fff"/><path d="M85.59,80.59c-1.55-1.09-3.14-2.18-4.72-3.24l-.55.83c1.57,1.06,3.15,2.14,4.69,3.23Z" fill="#fff"/><path d="M99.62,408.68l-.64-.77c-1.44,1.19-2.92,2.38-4.4,3.55l.62.79C96.69,411.08,98.17,409.88,99.62,408.68Z" fill="#fff"/><path d="M81.38,422.3l-.56-.83c-1.55,1-3.15,2.1-4.74,3.12l.54.84C78.22,424.41,79.82,423.36,81.38,422.3Z" fill="#fff"/><path d="M19.11,48.91q2.7.86,5.39,1.77l.32-1q-2.7-.91-5.41-1.77Z" fill="#fff"/><path d="M29.85,52.57c1.78.65,3.54,1.32,5.3,2l.37-.93c-1.77-.69-3.54-1.37-5.33-2Z" fill="#fff"/><path d="M107.51,400.49c-1.38,1.27-2.8,2.53-4.22,3.76l.66.76c1.42-1.24,2.84-2.51,4.23-3.78Z" fill="#fff"/><path d="M2.94,43.4,0,42.74v1c.9.21,1.81.4,2.7.62Z" fill="#fff"/><path d="M154.94,162.2c.83,1.68,1.66,3.4,2.44,5.11l.91-.42c-.79-1.72-1.61-3.45-2.45-5.14Z" fill="#fff"/><path d="M150.6,348.14l-.87-.49c-.92,1.63-1.88,3.27-2.85,4.89l.85.52C148.71,351.43,149.68,349.78,150.6,348.14Z" fill="#fff"/><path d="M164.85,317.09l-.94-.33c-.63,1.76-1.31,3.55-2,5.31l.93.36C163.54,320.66,164.22,318.87,164.85,317.09Z" fill="#fff"/><path d="M168.33,193.46l-1,.29c.54,1.8,1.06,3.63,1.54,5.45l1-.26C169.39,197.12,168.87,195.27,168.33,193.46Z" fill="#fff"/><path d="M158.38,332.93c.79-1.73,1.56-3.48,2.3-5.22l-.92-.39c-.73,1.73-1.5,3.48-2.29,5.19Z" fill="#fff"/><path d="M153.24,156.68c-.89-1.67-1.81-3.35-2.74-5l-.87.49c.93,1.63,1.84,3.31,2.73,5Z" fill="#fff"/><path d="M172.65,283.85c-.33,1.85-.68,3.72-1.06,5.57l1,.2c.38-1.86.74-3.74,1.06-5.6Z" fill="#fff"/><path d="M155.93,338.07l-.9-.44c-.83,1.68-1.7,3.37-2.58,5.05l.88.46C154.22,341.46,155.09,339.76,155.93,338.07Z" fill="#fff"/><path d="M29.38,448.66l.94-.34h0l.45-.16-.35-.94-1.54.55h0c-1.26.46-2.53.92-3.8,1.36l.32.94c1.33-.46,2.66-.93,4-1.41Z" fill="#fff"/><path d="M164,183l-.19.1.14.29h0l0,0h0c.59,1.64,1.17,3.31,1.72,5l.94-.31c-.59-1.79-1.21-3.6-1.85-5.37Z" fill="#fff"/><path d="M136.71,56.24c-1.49-1.17-3-2.34-4.52-3.47l-.6.8c1.5,1.13,3,2.29,4.5,3.45Z" fill="#fff"/><path d="M145.48,63.49c-1.43-1.25-2.89-2.48-4.34-3.68l-.64.77c1.44,1.19,2.9,2.43,4.32,3.66Z" fill="#fff"/><path d="M66.76,18.65c-1.81-.6-3.64-1.18-5.44-1.72l-.29,1c1.79.54,3.62,1.11,5.42,1.71Z" fill="#fff"/><path d="M61.44,483l-.28-1c-1.79.54-3.63,1.06-5.45,1.56l.26,1C57.81,484.1,59.65,483.57,61.44,483Z" fill="#fff"/><path d="M82.43,25.53c1.75.72,3.5,1.48,5.22,2.24l.41-.91c-1.73-.77-3.49-1.53-5.24-2.26Z" fill="#fff"/><path d="M113.31,40.05l-.52.85c1.6,1,3.22,2,4.82,3l.53-.85C116.55,42,114.92,41,113.31,40.05Z" fill="#fff"/><path d="M98.36,31.76c-1.68-.86-3.4-1.7-5.12-2.52l-.43.91c1.71.81,3.42,1.65,5.1,2.5Z" fill="#fff"/><path d="M50.22,485.06c-1.81.44-3.67.88-5.53,1.28l.22,1c1.86-.41,3.73-.84,5.55-1.29Z" fill="#fff"/><path d="M5.2,8.65c1.88.07,3.78.17,5.66.28l.06-1C9,7.82,7.12,7.72,5.23,7.65Z" fill="#fff"/><path d="M39,12.48c1.85.36,3.72.74,5.55,1.14l.22-1c-1.85-.4-3.73-.79-5.58-1.14Z" fill="#fff"/><path d="M39.33,488.47l-.19-1c-1.83.35-3.71.68-5.58,1l.16,1C35.6,489.16,37.49,488.82,39.33,488.47Z" fill="#fff"/><path d="M16.78,491.62l-.09-1c-1.86.16-3.76.31-5.66.43l.07,1C13,491.93,14.91,491.79,16.78,491.62Z" fill="#fff"/><path d="M28.09,490.33l-.14-1c-1.84.26-3.73.5-5.62.72l.11,1C24.34,490.83,26.24,490.59,28.09,490.33Z" fill="#fff"/><path d="M179.51,398.42c-1.13,1.51-2.29,3-3.45,4.51l.78.62c1.17-1.49,2.34-3,3.47-4.53Z" fill="#fff"/><path d="M131.53,446.47c-1.5,1.12-3,2.25-4.59,3.34l.58.82c1.55-1.1,3.1-2.23,4.61-3.36Z" fill="#fff"/><path d="M141.09,440.23l-.64-.77c-1.46,1.21-2.94,2.4-4.42,3.56l.62.79C138.13,442.64,139.62,441.44,141.09,440.23Z" fill="#fff"/><path d="M172.46,92.59q1.8,2.19,3.55,4.41l.78-.62Q175,94.15,173.23,92Z" fill="#fff"/><path d="M108.39,37.16c-1.64-.94-3.32-1.87-5-2.76l-.47.88c1.65.89,3.32,1.81,5,2.75Z" fill="#fff"/><path d="M77.16,23.41l.36-.93c-1.76-.68-3.56-1.35-5.35-2l-.34.94C73.61,22.07,75.41,22.74,77.16,23.41Z" fill="#fff"/><path d="M72.24,479.48l-.33-.94c-1.76.62-3.56,1.24-5.35,1.83l.32.95C68.67,480.73,70.48,480.11,72.24,479.48Z" fill="#fff"/><path d="M113.25,460l-.52-.86c-1.62,1-3.26,1.95-4.89,2.87l.5.87C110,461.94,111.62,461,113.25,460Z" fill="#fff"/><path d="M122.28,453c-1.55,1.05-3.14,2.09-4.74,3.11l.54.85c1.6-1,3.21-2.08,4.76-3.13Z" fill="#fff"/><path d="M103.36,465.63l-.47-.88c-1.66.89-3.35,1.77-5,2.62l.45.89C100,467.41,101.7,466.53,103.36,465.63Z" fill="#fff"/><path d="M82.84,475.39l-.39-.93c-1.72.72-3.48,1.43-5.24,2.11l.36.93C79.34,476.82,81.11,476.1,82.84,475.39Z" fill="#fff"/><path d="M93.22,470.77l-.43-.9c-1.68.79-3.41,1.59-5.14,2.36l.41.91C89.8,472.37,91.53,471.57,93.22,470.77Z" fill="#fff"/><path d="M16.52,9.36c1.86.16,3.76.35,5.64.56l.11-1c-1.89-.21-3.79-.41-5.67-.57Z" fill="#fff"/><path d="M5.37,491.34c-1.79.07-3.59.11-5.37.14v1c1.79,0,3.61-.07,5.41-.14Z" fill="#fff"/><path d="M27.78,10.63c1.86.26,3.75.55,5.61.85l.16-1c-1.87-.31-3.76-.6-5.63-.86Z" fill="#fff"/><path d="M62,0h-.55l.43.22Z" fill="#fff"/><path d="M201.37,134.51q-1.31-2.52-2.68-5l-.87.48c.91,1.65,1.79,3.31,2.66,5Z" fill="#fff"/><path d="M204.1,360.09l-.9-.44q-1.26,2.57-2.56,5.08l.89.46Q202.84,362.66,204.1,360.09Z" fill="#fff"/><path d="M192.26,379.6c-1,1.62-2,3.22-3,4.82l.84.54q1.54-2.4,3-4.84Z" fill="#fff"/><path d="M203,140q1.26,2.55,2.44,5.12l.91-.42c-.8-1.72-1.61-3.43-2.45-5.14Z" fill="#fff"/><path d="M186.11,389.16c-1.06,1.56-2.15,3.13-3.25,4.67l.82.58c1.1-1.55,2.2-3.12,3.25-4.69Z" fill="#fff"/><path d="M186,110.71c1.06,1.55,2.1,3.13,3.12,4.71l.84-.54c-1-1.59-2.07-3.17-3.13-4.74Z" fill="#fff"/><path d="M226.28,289.7c.3-1.87.57-3.75.83-5.64l-1-.13q-.37,2.82-.82,5.61Z" fill="#fff"/><path d="M227.76,221.19c-.22-1.89-.45-3.77-.71-5.65l-1,.14c.26,1.87.49,3.74.7,5.63Z" fill="#fff"/><path d="M226.4,210.12q-.32-2.84-.71-5.65l-1,.13c.26,1.87.49,3.75.71,5.63Z" fill="#fff"/><path d="M229.31,243.91c-.05-1.9-.11-3.8-.2-5.69l-1,.05c.09,1.88.16,3.77.2,5.67Z" fill="#fff"/><path d="M228.34,226.86l-1,.09q.25,2.82.45,5.65l1-.06Q228.6,229.69,228.34,226.86Z" fill="#fff"/><path d="M228.37,272.75l-1-.09q-.25,2.83-.57,5.64l1,.11Q228.11,275.59,228.37,272.75Z" fill="#fff"/><path d="M213.16,339.16l-.93-.36q-1,2.65-2.07,5.28l.92.38Q212.16,341.82,213.16,339.16Z" fill="#fff"/><path d="M210.93,155.18q-1.06-2.64-2.21-5.25l-.91.4q1.13,2.59,2.2,5.23Z" fill="#fff"/><path d="M218.67,323c.54-1.82,1.07-3.64,1.58-5.48l-1-.26q-.76,2.73-1.58,5.45Z" fill="#fff"/><path d="M208.88,349.71l-.92-.4c-.75,1.75-1.53,3.48-2.32,5.2l.91.42C207.34,353.21,208.13,351.45,208.88,349.71Z" fill="#fff"/><path d="M215,165.82c-.64-1.79-1.29-3.57-2-5.34l-.93.35c.67,1.77,1.33,3.54,2,5.33Z" fill="#fff"/><path d="M221.61,187.61c-.47-1.84-1-3.68-1.46-5.5l-1,.27c.51,1.81,1,3.64,1.46,5.47Z" fill="#fff"/><path d="M157.25,75.83c1.32,1.32,2.65,2.69,3.95,4l.72-.68c-1.31-1.38-2.64-2.75-4-4.08Z" fill="#fff"/><path d="M165.05,84q1.9,2.1,3.76,4.24l.75-.65q-1.86-2.16-3.77-4.26Z" fill="#fff"/><path d="M149.7,432.77,149,432c-1.39,1.26-2.82,2.53-4.24,3.77l.66.75C146.86,435.31,148.3,434,149.7,432.77Z" fill="#fff"/><path d="M149.06,68c1.39,1.28,2.79,2.58,4.14,3.87l.69-.72c-1.36-1.3-2.76-2.61-4.16-3.88Z" fill="#fff"/><path d="M196,375.21c1-1.65,1.89-3.3,2.81-5l-.88-.48q-1.36,2.5-2.79,5Z" fill="#fff"/><path d="M192.14,120.21q1.47,2.42,2.9,4.86l.86-.5q-1.43-2.46-2.91-4.88Z" fill="#fff"/><path d="M157.94,424.89l-.71-.71c-1.33,1.34-2.69,2.67-4.06,4l.7.72Q155.93,426.92,157.94,424.89Z" fill="#fff"/><path d="M172.49,407.36c-1.2,1.46-2.43,2.92-3.66,4.34l.76.66c1.23-1.43,2.47-2.9,3.68-4.36Z" fill="#fff"/><path d="M165.8,416.63l-.74-.67c-1.25,1.38-2.55,2.78-3.86,4.16l.72.69C163.24,419.42,164.54,418,165.8,416.63Z" fill="#fff"/><path d="M229.13,261.39l-1-.05c-.08,1.89-.19,3.78-.31,5.66l1,.07C228.94,265.18,229.05,263.29,229.13,261.39Z" fill="#fff"/><path d="M229.38,250v-.39h-1V250q0,2.85-.06,5.67l1,0C229.36,253.8,229.38,251.9,229.38,250Z" fill="#fff"/><path d="M225.33,295.31l-1-.17q-.5,2.79-1.07,5.57l1,.2C224.63,299.05,225,297.19,225.33,295.31Z" fill="#fff"/><path d="M224.17,198.71c-.38-1.87-.79-3.72-1.21-5.57l-1,.23c.42,1.84.83,3.68,1.21,5.54Z" fill="#fff"/><path d="M215.88,171.52q.88,2.7,1.72,5.41l1-.29q-.83-2.73-1.72-5.43Z" fill="#fff"/><path d="M217,328.42l-1-.31q-.88,2.7-1.83,5.37l.94.33C215.75,332,216.37,330.22,217,328.42Z" fill="#fff"/><path d="M222.71,307.88a1.62,1.62,0,0,0,0,.22h.1Z" fill="#fff"/><path d="M222.61,306.37l-.54-.12c-.42,1.85-.87,3.68-1.33,5.52l1,.24c.35-1.37.67-2.75,1-4.13l.33-1.3Z" fill="#fff"/><path d="M50.29,13.93l-.24,1,1.79.46h0l2.81.73h0l.9.24.26-1C54,14.86,52.13,14.38,50.29,13.93Z" fill="#fff"/><path d="M125.57,48l-1.18-.81-1.48-1-.56.83,1.36.93h0l.24.17.15.11h0l.85.58h0l.17.12.19.13h0c.57.39,1.13.79,1.69,1.19l.58-.82Z" fill="#fff"/><path d="M180.25,100.89l-.5.38-.22.21,0,.17c1.08,1.46,2.16,2.93,3.22,4.41l.81-.58Q182,103.17,180.25,100.89Z" fill="#fff"/><path d="M170.05,15.81c1.55,1,3.1,2.14,4.62,3.23l.59-.81c-1.53-1.1-3.1-2.19-4.65-3.25Z" fill="#fff"/><path d="M196.87,463c-1.4,1.27-2.82,2.53-4.24,3.78l.65.75c1.43-1.25,2.85-2.51,4.26-3.8Z" fill="#fff"/><path d="M145.8,1.39l.46-.89-1-.5H143C144,.46,144.89.92,145.8,1.39Z" fill="#fff"/><path d="M287.47,261.36l-1,0c-.07,1.89-.15,3.78-.25,5.66l1,.06C287.32,265.15,287.4,263.26,287.47,261.36Z" fill="#fff"/><path d="M285.84,284l-1-.1q-.3,2.82-.66,5.62l1,.13Q285.53,286.85,285.84,284Z" fill="#fff"/><path d="M286.67,249.65V250c0,1.89,0,3.78-.05,5.66l1,0c0-1.89.05-3.78.05-5.68v-.35Z" fill="#fff"/><path d="M285.4,278.28l1,.09q.25-2.82.46-5.66l-1-.08C285.73,274.52,285.57,276.4,285.4,278.28Z" fill="#fff"/><path d="M286.46,238.34c.07,1.87.12,3.76.16,5.64l1,0c0-1.89-.09-3.78-.16-5.66Z" fill="#fff"/><path d="M281.47,312.08q.57-2.77,1.08-5.57l-1-.18q-.51,2.79-1.08,5.56Z" fill="#fff"/><path d="M285.84,227q.21,2.82.36,5.65l1-.06q-.17-2.84-.36-5.67Z" fill="#fff"/><path d="M284.81,215.75q.3,2.81.56,5.63l1-.09q-.25-2.83-.57-5.65Z" fill="#fff"/><path d="M284.4,295.29l-1-.14q-.41,2.81-.87,5.6l1,.16Q284,298.11,284.4,295.29Z" fill="#fff"/><path d="M285.13,210c-.24-1.89-.5-3.76-.78-5.63l-1,.14q.42,2.81.78,5.61Z" fill="#fff"/><path d="M281.51,193.34q.51,2.78,1,5.58l1-.17q-.47-2.81-1-5.59Z" fill="#fff"/><path d="M269.94,149.58q.93,2.67,1.81,5.37l.95-.31c-.59-1.81-1.2-3.6-1.82-5.39Z" fill="#fff"/><path d="M265,366.36q1.08-2.61,2.12-5.27l-.93-.36q-1,2.64-2.11,5.25Z" fill="#fff"/><path d="M279.24,182.25c.41,1.83.8,3.68,1.18,5.53l1-.2c-.38-1.86-.77-3.71-1.19-5.55Z" fill="#fff"/><path d="M271,350.42l-.95-.32q-.93,2.67-1.9,5.33l.93.35C269.74,354,270.37,352.22,271,350.42Z" fill="#fff"/><path d="M266,139c.68,1.75,1.35,3.52,2,5.29l.94-.35q-1-2.67-2-5.31Z" fill="#fff"/><path d="M276.55,171.24c.48,1.82.95,3.65,1.39,5.49l1-.24c-.45-1.84-.92-3.68-1.4-5.5Z" fill="#fff"/><path d="M274.51,339.62l-1-.29q-.82,2.71-1.7,5.4l.95.31Q273.68,342.34,274.51,339.62Z" fill="#fff"/><path d="M279,323.18q.66-2.76,1.29-5.54l-1-.22q-.62,2.77-1.29,5.52Z" fill="#fff"/><path d="M273.45,160.35q.82,2.7,1.6,5.43l1-.27c-.52-1.83-1.05-3.64-1.6-5.45Z" fill="#fff"/><path d="M277.6,328.68l-1-.25q-.72,2.74-1.5,5.46l1,.28C276.62,332.34,277.12,330.52,277.6,328.68Z" fill="#fff"/><path d="M146.84,0h-.55l.43.22Z" fill="#fff"/><path d="M218.44,0h-.55l.43.22Z" fill="#fff"/><path d="M205.89,500h.44l-.08-.16Z" fill="#fff"/><path d="M205.07,455.14q-2,2-4,4l.69.72q2.06-2,4.07-4Z" fill="#fff"/><path d="M204.83,44.62c1.34,1.33,2.66,2.67,4,4l.72-.7c-1.32-1.36-2.64-2.72-4-4.05Z" fill="#fff"/><path d="M188.94,471.21l-.64-.77c-1.45,1.2-2.94,2.41-4.41,3.57l.62.79C186,473.63,187.48,472.42,188.94,471.21Z" fill="#fff"/><path d="M179.22,22.38c1.5,1.13,3,2.28,4.47,3.44l.62-.78c-1.48-1.16-3-2.33-4.49-3.46Z" fill="#fff"/><path d="M213.64,447.64l-.74-.67Q211,449.06,209,451.1l.73.69C211.06,450.42,212.36,449,213.64,447.64Z" fill="#fff"/><path d="M231.47,74q-1.69-2.28-3.43-4.53l-.79.61q1.73,2.23,3.41,4.52Z" fill="#fff"/><path d="M188.09,29.39c1.45,1.2,2.88,2.42,4.31,3.66l.66-.76c-1.44-1.24-2.88-2.47-4.34-3.67Z" fill="#fff"/><path d="M160.57,9.68c1.59,1,3.2,2,4.78,3l.54-.84c-1.58-1-3.2-2-4.8-3Z" fill="#fff"/><path d="M150.79,4c1.65.9,3.3,1.83,4.93,2.77l.5-.87c-1.63-.94-3.3-1.88-4.95-2.78Z" fill="#fff"/><path d="M151.33,496.82l-.48-.88c-1.64.89-3.32,1.78-5,2.65l.45.89C148,498.61,149.69,497.71,151.33,496.82Z" fill="#fff"/><path d="M180,478.29l-.6-.8c-1.52,1.14-3.05,2.27-4.57,3.36l.58.81C176.94,480.57,178.48,479.43,180,478.29Z" fill="#fff"/><path d="M161.18,491.11l-.52-.85c-1.6,1-3.24,1.95-4.87,2.9l.5.87C157.93,493.08,159.58,492.09,161.18,491.11Z" fill="#fff"/><path d="M170.74,484.93l-.56-.83c-1.55,1.06-3.14,2.11-4.73,3.14l.55.84C167.59,487.05,169.19,486,170.74,484.93Z" fill="#fff"/><path d="M234,79.22q1.64,2.31,3.22,4.66l.83-.56q-1.59-2.35-3.23-4.68Z" fill="#fff"/><path d="M258,381.92l-.9-.43q-1.23,2.55-2.52,5.07l.89.45Q256.75,384.49,258,381.92Z" fill="#fff"/><path d="M259.36,123.33l.91-.42c-.79-1.72-1.6-3.44-2.43-5.14l-.9.44Q258.17,120.75,259.36,123.33Z" fill="#fff"/><path d="M250,102.67q-1.39-2.49-2.84-4.93l-.86.51q1.44,2.43,2.82,4.91Z" fill="#fff"/><path d="M246.42,401.46c-.95,1.63-1.93,3.25-2.91,4.86l.85.52c1-1.61,2-3.24,2.93-4.87Z" fill="#fff"/><path d="M250.11,397c.93-1.65,1.83-3.31,2.73-5l-.88-.47q-1.34,2.51-2.72,5Z" fill="#fff"/><path d="M251.8,108.12q1.33,2.49,2.62,5l.89-.46c-.86-1.69-1.74-3.36-2.63-5Z" fill="#fff"/><path d="M261.82,371.2q-1.14,2.6-2.32,5.17l.91.41c.79-1.72,1.57-3.45,2.32-5.18Z" fill="#fff"/><path d="M264.82,133.32q-1.08-2.62-2.22-5.23l-.92.4q1.14,2.59,2.22,5.22Z" fill="#fff"/><path d="M220.15,61.29q1.82,2.16,3.6,4.37l.78-.63c-1.19-1.48-2.4-2.94-3.61-4.39Z" fill="#fff"/><path d="M235,421.08l-.82-.58q-1.63,2.33-3.31,4.6l.81.59Q233.35,423.41,235,421.08Z" fill="#fff"/><path d="M221.13,439.09l-.76-.64q-1.83,2.18-3.69,4.3l.75.66Q219.31,441.28,221.13,439.09Z" fill="#fff"/><path d="M212.67,52.78q1.92,2.09,3.79,4.22l.75-.66q-1.87-2.15-3.8-4.23Z" fill="#fff"/><path d="M228.25,430.23l-.79-.61q-1.72,2.25-3.5,4.46l.78.62C225.92,433.23,227.1,431.74,228.25,430.23Z" fill="#fff"/><path d="M239.28,414.77l2.05-3.12-.84-.54q-1.53,2.38-3.11,4.73l.83.56,1.07-1.63Z" fill="#fff"/><path d="M200.67,39.21l-1-1c-.78-.73-1.56-1.46-2.35-2.18l-.67.74c.8.73,1.59,1.47,2.38,2.21h0l1,.95h0l.75.7.68-.73-.79-.73Z" fill="#fff"/></g><rect width="750" height="500" fill="url(#a79bc90e-f707-4462-a1ad-9e439e215613)"/><path d="M0,353.68A103.68,103.68,0,0,0,88.33,251.15,103.68,103.68,0,0,0,0,148.62Z" fill="#ffd64f"/><path d="M0,379.65C13.91,382,28.25,381.31,38.81,368c21.53-27.09,21.18-19.19,44-33s-1-32.18,11.6-59.56S123.1,252.29,99.69,228c-15.12-15.69,2.7-34.45-9-60.28s-45.41-10-66.75-21.55c0,0-11.35-7-23.93-13.36Z" fill="#fcc237" opacity="0.5"/><path d="M0,134.35v232.1c18.69-3.06,53.94,5.59,66.22-22.8,13.74-31.77,15.45-24,33.91-43.36s-9.4-30.83-4.29-60.52C100.69,211.58,112,209.3,88.33,190c-16.88-13.78-11.9-20.6-29.93-42.49C41.88,127.42,21.47,136.92,0,134.35Z" fill="#fcc237" opacity="0.5"/><path d="M0,378.26a32.49,32.49,0,0,0,13.93-6.85c26.83-21.85,24.79-14.2,50.08-22.83s6-31.64,24.09-55.69,32.94-16.47,15.28-45.21C92,229.12,110.66,219.77,104.75,192s-39.48-24.67-57.85-40.5c0,0-18.45-19.69-33.76-28.85a21.22,21.22,0,0,0-13.14-3Z" fill="#fcc237" opacity="0.5"/><path d="M0,317.32c24.2-10.61,33.78-20.86,37.23,5.38A19.32,19.32,0,0,0,40,331a97.18,97.18,0,0,0,38.53-54.73C65,250.9,59.43,231.91,42.1,258.46c-22.88,35-20-21.9-41.37-21.9a6.06,6.06,0,0,0-.73,0Z" fill="#fab30b"/><path d="M2.68,165c-.91.43-1.8.8-2.68,1.12v38.29a92.71,92.71,0,0,0,12.85-4.86c26.24-12.16,25.35,9.74,39.95,28.23,9.11,11.53,16.89,5.46,23.82-7.92A97.3,97.3,0,0,0,12.19,158,29.61,29.61,0,0,1,2.68,165Z" fill="#fab30b"/><path d="M0,112.66a27.87,27.87,0,0,1,16.73,4c15.19,9.08,33,27.64,35,29.73l.09.08c5.88,4.93,13.85,7.83,22.28,10.9,15.49,5.64,33,12,37.55,33.18a58.41,58.41,0,0,1,1.33,12.29c0,8.81-2.17,15.83-3.93,21.49-1.28,4.14-2.39,7.72-2.39,11a16,16,0,0,0,2.73,8.65c6.46,10.5,9,16.72,9,22.21,0,7.92-5.38,12.36-10.57,16.66a78.67,78.67,0,0,0-14,14.21c-6.91,9.16-7.37,18.17-7.81,26.89-.57,11.11-1.27,24.94-19.61,31.2a142.07,142.07,0,0,1-18.07,4.92c-8.93,1.9-12.62,2.69-29.85,16.73A39.24,39.24,0,0,1,0,385.35v2.1a41.14,41.14,0,0,0,19.66-9c16.84-13.72,20.39-14.48,29-16.31a145,145,0,0,0,18.31-5c19.66-6.71,20.41-21.32,21-33.06.43-8.4.87-17.09,7.4-25.75a76.69,76.69,0,0,1,13.72-13.85c5.56-4.61,11.32-9.36,11.32-18.26,0-5.91-2.6-12.44-9.28-23.3a14,14,0,0,1-2.42-7.56c0-3,1.06-6.43,2.3-10.42,1.79-5.78,4-13,4-22.09a60.44,60.44,0,0,0-1.38-12.72c-4.74-22.27-22.87-28.87-38.86-34.69-8.24-3-16-5.84-21.62-10.51-3.36-3.54-20.31-21-35.35-30A29.94,29.94,0,0,0,0,110.59Z" fill="#fcc237"/><path d="M276.8,102.82A23.55,23.55,0,1,1,250.1,82.9,23.54,23.54,0,0,1,276.8,102.82Z" fill="#ff6410"/><path d="M238.32,108.41a23.56,23.56,0,0,1,15.9-25.74,24,24,0,0,0-4.12.23,23.55,23.55,0,0,0,6.78,46.61,23.09,23.09,0,0,0,4-.95A23.55,23.55,0,0,1,238.32,108.41Z" fill="#fff" opacity="0.2"/><path d="M260.27,83.65a23.56,23.56,0,0,1-18.68,42.88,23.55,23.55,0,1,0,18.68-42.88Z" fill="#330b02" opacity="0.2" style="mix-blend-mode:multiply"/><path d="M263.08,102.58c-2.6,1.89-7,1.93-4.83,5.68s3.31,10.58,8.18,8,10-5.07,7.95-7.74-5.89-7.32-7.91-6.89A33.52,33.52,0,0,0,263.08,102.58Z" fill="#ff5210"/><path d="M244.75,111.16c3,1.79,3.93.74,6.14,3.24s5.05,4.58,6.77,5-.65,5.24-4.74,4.66-7.44-1.77-8.36-3.56-5.3-2.62-5.95-6.73C238.08,110.39,239.68,108.12,244.75,111.16Z" fill="#ff5210"/><g clip-path="url(#ac600a2f-2ae3-457b-93a0-4d571e62a8ec)"><path d="M245.23,77.74a12.44,12.44,0,0,0,0,11.45c3.18,5.88.31,12.37-2.47,14s-15.62,4.13-15.62,4.13l-.32-22.21,11.27-10ZM259,81.68s-6.9,6.75-4,11.83,10.17-.39,15.6,2.81a18.3,18.3,0,0,0,10.52,2.6L275,78.67l-11.79-2.26Z" fill="#ff5210"/></g><path d="M272.89,107.85c-9.06-.94-18.35,11.86-29,7.2a24.4,24.4,0,0,0-13-2.13,23.55,23.55,0,0,0,46-4.7C275.7,108.12,274.34,108,272.89,107.85Z" fill="#ff5210" opacity="0.5" style="mix-blend-mode:multiply"/><path d="M276.28,112.18c-5.9,4.38-16.73,11-25.86,8.62-5.06-1.31-9.2.47-12.38,3.17a23.55,23.55,0,0,0,38.24-11.79Z" fill="#ff5210" opacity="0.41" style="mix-blend-mode:multiply"/><path d="M240.38,113.19c1.75,1.47,2.82,3.15,2.48,4.44s-2.17,2.41-4.4,1.85a4.4,4.4,0,0,1-2.9-5.57C236.42,111.72,238.67,111.74,240.38,113.19Z" fill="#c21d07" opacity="0.75"/><path d="M273.87,107.12c-1.2,2.3-3,3.86-4.49,3.75s-3.21-1.94-3.28-4.54a4.73,4.73,0,0,1,5.35-4.58C274.26,102.19,275.07,104.84,273.87,107.12Z" fill="#c21d07" opacity="0.75"/><path d="M250.16,87.31c3.46,1.63,4.32,3.25,2.46,4.28s-5.22,3.26-7.49,4.11-4.52-1-3.92-4.54S246.68,85.68,250.16,87.31Z" fill="#c21d07" opacity="0.75"/><path d="M256,105.53c1.85.13,2.3,2.78-.13,4.73s-5,1.34-4.93.24a11.16,11.16,0,0,1,1.27-3.56C252.66,106.07,254.1,105.37,256,105.53Z" fill="#c21d07" opacity="0.75"/><path d="M258.86,126.25c-1.76-.58-1.55-3.27,1.29-4.56s5.17-.06,4.83,1a11.17,11.17,0,0,1-2.1,3.13C262.19,126.54,260.62,126.86,258.86,126.25Z" fill="#c21d07" opacity="0.75"/><circle cx="228.06" cy="249.65" r="29.76" transform="translate(-90.09 364.16) rotate(-67.38)" fill="#ff7d52"/><path d="M202.92,260.73a27.45,27.45,0,0,0,3.55,5.9,22.14,22.14,0,0,1,6.47,1.84,111.52,111.52,0,0,0,23.62,7.3,27.53,27.53,0,0,0,9.06-5c-8.78-.34-20.29-3.51-30.3-7.82C210.62,260.93,206.47,260.19,202.92,260.73Z" fill="#a64829"/><path d="M226.3,251.07c-9.65-7.23-17.75-10.09-24-10.92a27.38,27.38,0,0,0-1.7,9.84c4.61.54,11.23,2.73,19.71,9.08a38.66,38.66,0,0,0,20.46,7.62,49.25,49.25,0,0,0,8.94-.12,27.49,27.49,0,0,0,5.19-11C246.14,257.57,235.3,257.81,226.3,251.07Z" fill="#a64829"/><path d="M253.55,239.4c-9.6,1.67-19,1.48-24.79-3a147.82,147.82,0,0,0-15-10.19,27.65,27.65,0,0,0-6.48,5.5,135.49,135.49,0,0,1,16.62,11,27.34,27.34,0,0,0,12.57,5.08,58.48,58.48,0,0,0,19-.64l-.06-.65A27.44,27.44,0,0,0,253.55,239.4Z" fill="#a64829"/><path d="M225,222.35a27.35,27.35,0,0,0-5.32,1.15l0,0c3,4,8.1,6.35,15.09,7,4.69.46,9.38.67,13.74.74A27.41,27.41,0,0,0,240.1,225c-1.59-.1-3.19-.22-4.78-.38a19.39,19.39,0,0,1-8.25-2.38C226.36,222.23,225.66,222.27,225,222.35Z" fill="#a64829"/><path d="M208.82,251.84A29.76,29.76,0,0,1,229.9,220a29.39,29.39,0,0,0-5.21.13,29.76,29.76,0,0,0,6.75,59.13,30.65,30.65,0,0,0,5.11-1A29.76,29.76,0,0,1,208.82,251.84Z" fill="#fff" opacity="0.2"/><path d="M237.5,221.42a29.75,29.75,0,0,1-25.26,53.42,29.76,29.76,0,1,0,25.26-53.42Z" fill="#754f42" opacity="0.2" style="mix-blend-mode:multiply"/><circle cx="337.75" cy="310.74" r="29.76" fill="#24c3d2"/><g clip-path="url(#b197b409-b2bc-45b8-8dbe-2da4e8c97957)"><path d="M313.5,287.2c.31-.08,28.62,1.27,19.27,16.9s-18.21,13.8-10.25,19.45S325.79,352,325.79,352l-21.31-18.71L299.19,295l9.19-10.22Zm42.24-4s-21.47,20.58-11.11,25.6,10.08,16.38,10.08,16.38-4.47,17.61,13.11,8.67,1.68-55.35,1.68-55.35Z" fill="#36a61a"/></g><path d="M337,317.49c3.05.73,6.56.39,5.9,5.26s-3,6.64-1.47,7.26,1.86,4.21-.19,3.74-9.08-1.66-8-8.64S335.44,317.13,337,317.49Z" fill="#36a61a"/><path d="M319,315.63a29.78,29.78,0,0,1,16.39-34.55,29.76,29.76,0,1,0,14.77,56.71A29.76,29.76,0,0,1,319,315.63Z" fill="#fff" opacity="0.2"/><path d="M343.11,281.47a29.76,29.76,0,0,1-17.48,56.45,29.76,29.76,0,1,0,17.48-56.45Z" fill="#146d75" opacity="0.2" style="mix-blend-mode:multiply"/><path d="M341.75,283a28,28,0,0,0-28.94,14.93c3.38-1.7,7.3-2.57,11.28-1.13,11,4,19-8.26,27.94-4.56a14.89,14.89,0,0,0,7.4.74A27.94,27.94,0,0,0,341.75,283Z" fill="#fff" opacity="0.3"/><path d="M310.69,318.09a27.54,27.54,0,0,0,1.56,4.3,5.79,5.79,0,0,1,.6-.07,11,11,0,0,1,4,.64c.7.21,1.54.54,2.3.8s1.57.52,2.38.74a29.25,29.25,0,0,0,9.89,1.31,20.78,20.78,0,0,0,9.29-3,20.14,20.14,0,0,1-9.29,1.56,26.76,26.76,0,0,1-8.92-2.56c-.71-.31-1.41-.67-2.12-1s-1.33-.74-2.13-1.12a15,15,0,0,0-5.29-1.63A10.33,10.33,0,0,0,310.69,318.09Z" fill="#fff" opacity="0.3"/><path d="M356.82,331.29c-6.59,2.42-11.55.11-16.35-1-6.72-1.54-8.89,2.76-19.29-2a14.12,14.12,0,0,0-6.44-1.58,28,28,0,0,0,42.08,4.53Z" fill="#fff" opacity="0.3"/><path d="M352.78,300.34a17.73,17.73,0,0,1,1.71.8l.83.45c.28.16.66.34,1,.5a10.28,10.28,0,0,0,4.59,1.09,10.68,10.68,0,0,0,3.65-.61,26.72,26.72,0,0,0-1.48-3.82,7.19,7.19,0,0,1-5.73.7c-.3-.09-.54-.14-.88-.25l-1-.35a18.94,18.94,0,0,0-2.09-.56,17.63,17.63,0,0,0-4.28-.25,15,15,0,0,0-7.7,2.82,14.21,14.21,0,0,1,7.69-1.4A15.52,15.52,0,0,1,352.78,300.34Z" fill="#fff" opacity="0.3"/><path d="M302.93,346.32a4.11,4.11,0,0,0-1.65-.49l-.45-.12-.14,0a6,6,0,0,0-2.86-.16,10.49,10.49,0,0,0-6.44,3.36,10.14,10.14,0,0,0-2,3.46,9.24,9.24,0,0,0-.47,3.61,10.07,10.07,0,0,0,4,7.6,7.56,7.56,0,0,0,3.11,1.53,1.42,1.42,0,0,0,.76.26,10.81,10.81,0,0,0,3.36.18,10,10,0,0,0,2.81-19.2Z" fill="#fdfdfd"/><path d="M307.29,353.57a.52.52,0,0,0-.31-.76,1.36,1.36,0,0,1-.75-1,13.17,13.17,0,0,0-2-3.57.36.36,0,0,0-.41-.16c-.46.08-.64-.11-.48-.53.09-.22,0-.17-.12-.26-.56-.62-1.4-.84-2-1.46a4.11,4.11,0,0,1,1.65.49,10,10,0,0,1-2.81,19.2,10.81,10.81,0,0,1-3.36-.18,1.42,1.42,0,0,1-.76-.26c.95-.21,1.92-.1,2.87-.32a15.13,15.13,0,0,0,1.75-.62c.17-.07.18-.2.2-.35.05-.47.31-.6.68-.3a.39.39,0,0,0,.56,0,3.67,3.67,0,0,1,1.47-.57,2.33,2.33,0,0,0,1.91-2.23,4.38,4.38,0,0,1,.55-2,9.13,9.13,0,0,0,.75-3.44c0-.46,0-.92.48-1.17,0,0,.06-.16.09-.24h0l0-.25Zm-3.11-5.85,0-.1-.06,0a.14.14,0,0,0,0,0Z" fill="#d1d3d4"/><path d="M300.83,345.71l-.14,0Z" fill="#d1d3d4"/><path d="M304.94,359.4a2.29,2.29,0,0,1-.87,3.07,2.32,2.32,0,0,1-3-.8,2.25,2.25,0,1,1,3.89-2.27Z" fill="#d1d3d4"/><path d="M296.48,353.2a1.52,1.52,0,0,1-.68,2.17,1.73,1.73,0,0,1-2-.66,1.56,1.56,0,0,1,.52-2.07A1.54,1.54,0,0,1,296.48,353.2Z" fill="#d1d3d4"/><path d="M301.32,350.4a1.18,1.18,0,0,1,.38-1.59,1.2,1.2,0,0,1,1.61.45,1.16,1.16,0,0,1-.37,1.54A1.19,1.19,0,0,1,301.32,350.4Z" fill="#d1d3d4"/><path d="M295,349.37a.82.82,0,0,1,.82,1.41,1,1,0,0,1-1.17-.28A.89.89,0,0,1,295,349.37Z" fill="#d1d3d4"/><path d="M307.31,353.81l-.51.3a.56.56,0,0,1-.86-.28.64.64,0,0,1,.21-.86.6.6,0,0,1,.91.17,4.34,4.34,0,0,1,.23.43h0l0,.25Z" fill="#d1d3d4"/><path d="M294.17,357.62a.6.6,0,0,1-.89-.26.62.62,0,0,1,.16-.91.69.69,0,0,1,1,.21A.73.73,0,0,1,294.17,357.62Z" fill="#d1d3d4"/><path d="M299.29,355.22c-.36.18-.67.17-.89-.21a.58.58,0,0,1,.2-.88.65.65,0,0,1,.89.3A.55.55,0,0,1,299.29,355.22Z" fill="#d1d3d4"/><path d="M305.23,356a.53.53,0,0,1-.19.72.49.49,0,0,1-.71-.16c-.22-.3-.07-.56.19-.73S305,355.78,305.23,356Z" fill="#d1d3d4"/><path d="M294.43,360.85c.23-.08.45-.22.6.06a.41.41,0,0,1-.15.61.34.34,0,0,1-.52-.12C294.27,361.21,294.17,361,294.43,360.85Z" fill="#d1d3d4"/><path d="M290.89,355.86c.1.23.1.42-.14.56a.38.38,0,0,1-.56-.14.39.39,0,0,1,.08-.54A.44.44,0,0,1,290.89,355.86Z" fill="#d1d3d4"/><path d="M292.84,350.31a.42.42,0,0,1,.62.14c.12.2,0,.38-.18.49s-.44.14-.57-.08A.39.39,0,0,1,292.84,350.31Z" fill="#d1d3d4"/><circle cx="401.06" cy="154.73" r="54.48" transform="translate(-3.22 8.63) rotate(-1.23)" fill="#eaddd9"/><path d="M395.21,138.07c19,3.9,31.81,7.39,51.59-3.26a49.89,49.89,0,0,0-85.73-9.92C370.25,129.78,382.88,135.55,395.21,138.07Z" fill="#b7988e"/><path d="M388.73,181.37c-15.46-7.64-26.46-8.27-33.56-7.05a49.89,49.89,0,0,0,85.64,10.55C424.86,187.9,404.52,189.16,388.73,181.37Z" fill="#b7988e"/><path d="M359.52,183.1a49.63,49.63,0,0,0,8.37,9.43,41.23,41.23,0,0,1,12.26,1.14,204.31,204.31,0,0,0,45,5.24,49.91,49.91,0,0,0,14.62-12c-15.9,2.34-37.68.48-57.15-3.92C373.44,180.89,365.72,181,359.52,183.1Z" fill="#914d36"/><path d="M398.36,157.88c-19.79-9.77-35.33-12.22-46.88-11.61a50,50,0,0,0,.25,18.28c8.48-.56,21.12,1.15,38.52,9.75a70.88,70.88,0,0,0,39.37,6.85,90.16,90.16,0,0,0,16.05-3.21,50.37,50.37,0,0,0,5.66-21.57C436.24,162.94,416.81,167,398.36,157.88Z" fill="#86665b"/><path d="M443.5,127.74c-16.72,6.22-33.62,9-45.62,2.9a268.21,268.21,0,0,0-30.45-13.32,50.59,50.59,0,0,0-9.82,12.08,247.79,247.79,0,0,1,33.61,14.29c7.38,3.76,15.67,5.17,24.33,4.93,11.08-.3,22.77-3.3,33.91-7.5-.11-.38-.2-.76-.32-1.15A50.55,50.55,0,0,0,443.5,127.74Z" fill="#ceb7b0"/><path d="M386.3,106.65a50.47,50.47,0,0,0-9.18,3.84l.05.05c6.78,6.17,16.71,8.72,29.52,7.58,8.6-.76,17.1-2,25-3.29a50.69,50.69,0,0,0-17.22-8.57c-2.89.35-5.81.66-8.73.92-6.33.56-11.55,0-15.66-1.52C388.81,106,387.55,106.26,386.3,106.65Z" fill="#9c867f"/><path d="M367.15,165.13a54.49,54.49,0,0,1,27.26-64.47A54.48,54.48,0,1,0,417,206.82a55.21,55.21,0,0,0,8.85-3.6A54.5,54.5,0,0,1,367.15,165.13Z" fill="#fff" opacity="0.2"/><path d="M408.57,100.76A54.48,54.48,0,0,1,381,205.38a54.48,54.48,0,1,0,27.54-104.62Z" fill="#754f42" opacity="0.2" style="mix-blend-mode:multiply"/><path d="M434,170.88c2.95,3-3.88,9.06-14,8.13s-14.36-6.69-11.92-8.19c2.44-1.65,7.39-2.07,12-2.69C424.64,167.82,431.17,167.9,434,170.88Z" fill="#b7988e"/><path d="M423.77,176a18.92,18.92,0,0,1-3.53,0,20.67,20.67,0,0,1-6.2-1.55,1.34,1.34,0,0,1,.32-2.54c1.37-.23,2.85-.42,4.25-.6l1.72-.22h.1c4.65-.3,7.46.09,9.16.62a1.34,1.34,0,0,1,.27,2.41A14.24,14.24,0,0,1,423.77,176Z" fill="#914d36"/><circle cx="574.95" cy="154.73" r="23.47" transform="translate(-10.41 263.62) rotate(-25.6)" fill="#e78f72"/><path d="M575.63,133.64c2.13,4.51,6.2,10.09,14,14.58a49.34,49.34,0,0,0,6.13,2.95,22.13,22.13,0,0,0-.65-2.7c-9.41-4.12-14.3-9.84-16.84-14.58A21.45,21.45,0,0,0,575.63,133.64Z" fill="#ba7159"/><path d="M583.74,173.94a21,21,0,0,0,4.78-3.07c-17.7-5.51-27.18-18.56-31.6-26.91-.09.15-.19.29-.28.45a20.87,20.87,0,0,0-2,4.64,59.85,59.85,0,0,0,21.19,21.16A54.64,54.64,0,0,0,583.74,173.94Z" fill="#deaa99"/><path d="M553.83,153.31a21.15,21.15,0,0,0,.24,5,45.41,45.41,0,0,0,15.73,15.56,43.15,43.15,0,0,0,4.08,2,20.84,20.84,0,0,0,5.35-.42C566.07,171.43,558.32,162,553.83,153.31Z" fill="#ba7159"/><path d="M584.27,162.48a87.87,87.87,0,0,0,8.13,4.11A21.19,21.19,0,0,0,596,156c-15.08-6.88-22-15.46-25.2-22a21.13,21.13,0,0,0-10,5C564.38,146.07,571.16,154.93,584.27,162.48Z" fill="#e7714a"/><path d="M560.22,150.69A23.46,23.46,0,0,1,585,133.53a23.47,23.47,0,1,0-16.28,43.83,24,24,0,0,0,4,.74A23.48,23.48,0,0,1,560.22,150.69Z" fill="#fff" opacity="0.2"/><path d="M590.14,136.83A23.47,23.47,0,0,1,556,168.53a23.47,23.47,0,1,0,34.17-31.7Z" fill="#754f42" opacity="0.2" style="mix-blend-mode:multiply"/><circle cx="695.88" cy="74.8" r="14.64" transform="translate(309.8 658.57) rotate(-62.66)" fill="#be9b7d"/><path d="M686.63,72.5a14.64,14.64,0,0,1,15.21-11.06,14.81,14.81,0,0,0-2.43-.84,14.63,14.63,0,1,0-4.54,28.8A14.63,14.63,0,0,1,686.63,72.5Z" fill="#fff" opacity="0.2"/><path d="M705.08,63.43a14.63,14.63,0,0,1-20.83,20.25,14.63,14.63,0,1,0,20.83-20.25Z" fill="#427175" opacity="0.2" style="mix-blend-mode:multiply"/><path d="M707.65,81.81a5.75,5.75,0,0,0-2-1.48c-5-2.18-11.44.76-16.8-5.86-2.28-2.83-4.58-3-6.47-2.28a13.7,13.7,0,0,0,25.23,9.62Z" fill="#9d6b48" opacity="0.9" style="mix-blend-mode:multiply"/><path d="M684.11,67.65a5.72,5.72,0,0,0,2,1.48c5,2.18,11.45-.75,16.8,5.87,2.29,2.82,4.59,3,6.47,2.28a13.7,13.7,0,0,0-25.23-9.63Z" fill="#9d6b48" opacity="0.9" style="mix-blend-mode:multiply"/><path d="M701,87.49a13.22,13.22,0,0,1-.86-1.07,9.56,9.56,0,0,0-2-2.09,8.4,8.4,0,0,0-4.56-1.06c-2.39-.1-3.93-.26-5.09-1.73a11.36,11.36,0,0,0-6-3.76,13.63,13.63,0,0,0,6.08,8.6,13.84,13.84,0,0,0,4.83.82,6.43,6.43,0,0,1,2.46.35,4.81,4.81,0,0,1,.84.91A14.19,14.19,0,0,0,701,87.49Z" fill="#321c07" opacity="0.41" style="mix-blend-mode:multiply"/><path d="M709.39,77.49a22.73,22.73,0,0,0-4.53-1.34,23.41,23.41,0,0,0-4.18-.25c-3.5,0-6.51,0-8.82-3.5a12.2,12.2,0,0,0-7.37-5.35,14.06,14.06,0,0,0-.87,1.46,13.85,13.85,0,0,0-1.16,3.14,7.15,7.15,0,0,1,5.3,3.46,11.86,11.86,0,0,0,5.3,4.57,18.9,18.9,0,0,0,7.61,1.13A20.89,20.89,0,0,1,704,81a17.89,17.89,0,0,1,3.6,1.07c.2-.31.38-.63.55-1A14,14,0,0,0,709.39,77.49Z" fill="#321c07" opacity="0.41" style="mix-blend-mode:multiply"/><path d="M709.28,71.65a13.23,13.23,0,0,0-1.22-3.26,29.48,29.48,0,0,0-5.22.06c-4.55.33-6.78.24-7.53-2a14.28,14.28,0,0,0-2.82-5,13.85,13.85,0,0,0-3,1.16,10.29,10.29,0,0,1,3,4.84,5.35,5.35,0,0,0,2.69,3.21c2.22,1.14,5.24.92,7.84.74C705.32,71.24,707.64,71.07,709.28,71.65Z" fill="#321c07" opacity="0.41" style="mix-blend-mode:multiply"/><path d="M699.61,65.64a11.22,11.22,0,0,0,7.16.72,13.55,13.55,0,0,0-1.63-1.76c-4.53.41-6.36-1.63-7.28-3.43a12.74,12.74,0,0,0-2.22-.14A8.62,8.62,0,0,0,699.61,65.64Z" fill="#321c07" opacity="0.41" style="mix-blend-mode:multiply"/><circle cx="500.13" cy="324.74" r="29.76" transform="translate(-93.27 383.6) rotate(-38.66)" fill="#52d8ff"/><path d="M493.13,298.68a79.37,79.37,0,0,0,4.42,6.62,85.06,85.06,0,0,0,10.72,11.8,78.47,78.47,0,0,0,12.82,9.52,70,70,0,0,0,6.38,3.3c.16-.83.27-1.66.35-2.49-1.64-1.17-3.27-2.36-4.86-3.59-4.1-3.13-8-6.43-11.82-9.89s-7.47-7.06-11-10.8c-1.78-1.87-3.57-3.75-5.29-5.7h0c-.7.13-1.39.3-2.08.49Z" fill="#99e8ff"/><path d="M506.62,300.39a68.19,68.19,0,0,0,9.17,9.89c1.7,1.47,3.43,2.9,5.23,4.25s3.64,2.62,5.55,3.79l.73.43a27.11,27.11,0,0,0-1-3.44c-1.22-.95-2.45-1.9-3.63-2.9-1.71-1.37-3.38-2.78-5-4.25a122.56,122.56,0,0,1-9.35-9.17c-.33-.37-.65-.74-1-1.12a27.21,27.21,0,0,0-2.9-.61C505.13,298.33,505.86,299.38,506.62,300.39Z" fill="#298aa6"/><path d="M494.9,351.57c-.87-.68-1.77-1.31-2.64-2l-2.56-2.07c-.87-.67-1.69-1.4-2.53-2.11s-1.68-1.41-2.46-2.19L482.28,341c-.78-.77-1.55-1.56-2.34-2.32-1.56-1.55-3.06-3.16-4.54-4.78-.78-.87-1.55-1.75-2.31-2.63a27.86,27.86,0,0,0,2.3,6.18,67.26,67.26,0,0,0,7.42,7.86c1.9,1.67,3.85,3.29,5.89,4.79.32.15.63.29,1,.42a27.86,27.86,0,0,0,6.11,1.7Z" fill="#298aa6"/><path d="M477.31,326.56a83.1,83.1,0,0,0,29,24.67l.85.43a28.45,28.45,0,0,0,3.9-1.33c-1.05-.63-2.08-1.28-3.09-2a136.94,136.94,0,0,1-14.83-11,135.32,135.32,0,0,1-13.26-12.87q-3.33-3.69-6.43-7.63a25.91,25.91,0,0,0-.68,2.8A75.59,75.59,0,0,0,477.31,326.56Z" fill="#99e8ff"/><path d="M507.28,322.32a168.18,168.18,0,0,1-14.75-14.38q-3.22-3.56-6.22-7.34a27.49,27.49,0,0,0-2.45,1.57,71.53,71.53,0,0,0,5.2,8.54,90.08,90.08,0,0,0,14.51,15.9,93.25,93.25,0,0,0,17.77,12.11c.72.37,1.44.74,2.17,1.09a27.4,27.4,0,0,0,2-3.66l-1.87-1.25A184.21,184.21,0,0,1,507.28,322.32Z" fill="#52dcff"/><path d="M479.42,313.71a105.44,105.44,0,0,0,17.85,19.54,118.52,118.52,0,0,0,10.65,7.88c1.86,1.18,3.67,2.45,5.59,3.53,1.25.68,2.5,1.33,3.76,2a27,27,0,0,0,3.51-3.26c-1.53-1-3.07-2-4.62-3-1.76-1.19-3.45-2.48-5.18-3.71l-2.6-1.84c-.87-.61-1.65-1.32-2.49-2l-5-4a163.74,163.74,0,0,1-18-17.93q-1.92-2.25-3.75-4.58a26.44,26.44,0,0,0-2.42,3.21C477.62,311,478.5,312.38,479.42,313.71Z" fill="#298aa6"/><path d="M482.18,317.45A29.77,29.77,0,0,1,516,299.55a29.76,29.76,0,1,0-22,54.29A29.76,29.76,0,0,1,482.18,317.45Z" fill="#fff" opacity="0.2"/><path d="M521.92,304.48a29.75,29.75,0,0,1-47.75,34.8,29.75,29.75,0,1,0,47.75-34.8Z" fill="#425175" opacity="0.2" style="mix-blend-mode:multiply"/><g clip-path="url(#a982fa90-780a-4ef7-b62d-6cd67c06d0c2)"><path d="M507.48,316.41c-32.94-29-64-47.64-69.37-41.54S455.06,309.46,488,338.5s64,47.64,69.37,41.54S540.41,345.45,507.48,316.41ZM493.64,332.1c-26.95-23.77-46.16-46-42.92-49.7s27.73,12.6,54.68,36.37,46.16,46,42.92,49.69S520.59,355.86,493.64,332.1Z" fill="#52dcff"/><path d="M488.32,338.13c-32.11-28.33-54.94-57.14-49.84-62.92s36.55,13.25,68.66,41.57,55,57.14,49.85,62.92S520.44,366.45,488.32,338.13Zm18.16-20.6c-36.24-32-63.6-45.81-67.25-41.66s13.51,29.54,49.76,61.51,63.6,45.81,67.25,41.66S542.73,349.5,506.48,317.53Zm-13.83,15.69c-17.27-15.22-48.49-45.65-43-51.81s39.52,21,56.79,36.23,48.48,45.65,43.05,51.81S509.92,348.45,492.65,333.22Zm13.08-14.83c-23.84-21-51.35-40.89-55.38-36.32s19.12,29.38,43,50.4,51.35,40.89,55.38,36.32S529.56,339.41,505.73,318.39Z" fill="#36879c"/></g><path d="M553.22,370.49a19.73,19.73,0,0,1,1.15,2.3,5,5,0,0,1,.45,2.59,1.65,1.65,0,0,1-.9,1.12,3.17,3.17,0,0,1-1.37.25,10.72,10.72,0,0,1-2.61-.45,54.44,54.44,0,0,1-9.48-4.14c-6.05-3.26-11.86-6.93-17.55-10.74A353.39,353.39,0,0,1,490.1,336.6a351.76,351.76,0,0,1-28.74-29.45c-4.5-5.17-8.86-10.47-12.86-16.07a54.39,54.39,0,0,1-5.28-8.89,10.63,10.63,0,0,1-.78-2.53,3.15,3.15,0,0,1,.08-1.39,1.6,1.6,0,0,1,1-1,4.87,4.87,0,0,1,2.63.12,18.24,18.24,0,0,1,2.42.85,17.57,17.57,0,0,0-2.47-.64,4.7,4.7,0,0,0-2.42.06c-.72.31-.83,1.16-.65,1.94a10.13,10.13,0,0,0,.87,2.31,53.88,53.88,0,0,0,5.72,8.37c4.21,5.34,8.77,10.41,13.39,15.42s9.35,9.92,14.19,14.72,9.69,9.6,14.77,14.08,10.43,8.72,15.81,12.9,10.86,8.24,16.39,12.23,11.15,7.85,17,11.36a54.12,54.12,0,0,0,9,4.63,10.3,10.3,0,0,0,2.41.57c.79.08,1.62-.13,1.84-.89a4.71,4.71,0,0,0-.24-2.41A18.6,18.6,0,0,0,553.22,370.49Z" fill="#c4f3ff"/><circle cx="656.07" cy="297.26" r="23.55" transform="translate(-30.25 78.74) rotate(-6.71)" fill="#977408"/><path d="M646.59,309.3a23.56,23.56,0,0,1-6.19-29.62,23.56,23.56,0,1,0,36.43,28.69A23.54,23.54,0,0,1,646.59,309.3Z" fill="#fff" opacity="0.2"/><path d="M645.46,276.23a23.56,23.56,0,0,1,16,44,23.55,23.55,0,1,0-16-44Z" fill="#331309" opacity="0.2" style="mix-blend-mode:multiply"/><path d="M660.53,288c-.58,3.15-3.74,6.2.41,7.44s9.68,5.4,11.47.2,3.73-10.53.44-11.08-9.32-1.26-10.48.44A32.22,32.22,0,0,0,660.53,288Z" fill="#876909"/><path d="M653.14,306.87c3.4-.76,3.35-2.17,6.68-1.88s6.82-.15,8.36-1,3.13,4.24-.23,6.64-6.61,3.84-8.52,3.17-5.64,1.75-8.95-.79C647.77,310.9,647.37,308.16,653.14,306.87Z" fill="#876909"/><g clip-path="url(#af2c9e65-929a-4b57-a736-a511d6ff3149)"><path d="M630.48,282.3a12.45,12.45,0,0,0,7.86,8.32c6.36,2.08,8.75,8.76,7.82,11.83s-8.49,13.75-8.49,13.75l-15.52-15.9,1.31-15Zm12.7-6.62s-.36,9.65,5.28,11.3,7.1-7.28,13.25-8.7a18.32,18.32,0,0,0,9.41-5.35l-18.43-10.42L642.58,269Z" fill="#876909"/></g><path d="M671.28,285.1c-7.22,5.56-5.15,21.23-16.09,25.18a24.39,24.39,0,0,0-10.87,7.38,23.55,23.55,0,0,0,30.16-35.09C673.5,283.36,672.43,284.21,671.28,285.1Z" fill="#ff7f52" opacity="0.5" style="mix-blend-mode:multiply"/><path d="M676.72,285.91c-1.27,7.24-4.58,19.47-12.83,24-4.57,2.53-6.35,6.67-6.81,10.82a23.55,23.55,0,0,0,19.64-34.87Z" fill="#ff7f52" opacity="0.41" style="mix-blend-mode:multiply"/><circle cx="157.89" cy="321.32" r="14.64" transform="translate(-181.11 436.46) rotate(-82.59)" fill="#0724b9"/><path d="M148.62,323.52a14.64,14.64,0,0,1,8.43-16.81,15,15,0,0,0-2.54.37,14.64,14.64,0,1,0,6.76,28.48,13.86,13.86,0,0,0,2.43-.81A14.62,14.62,0,0,1,148.62,323.52Z" fill="#fff" opacity="0.2"/><path d="M160.85,307a14.63,14.63,0,0,1-9.21,27.56A14.63,14.63,0,1,0,160.85,307Z" fill="#425375" opacity="0.2" style="mix-blend-mode:multiply"/><path d="M171.57,322.14a5.5,5.5,0,0,0-2.42-.41c-5.41.34-9.82,5.92-17.62,2.5-3.32-1.46-5.45-.56-6.79.94a13.7,13.7,0,0,0,26.83-3Z" opacity="0.9" fill="url(#a3aa8a6d-2d6b-4323-b641-2635b288f28c)" style="mix-blend-mode:multiply"/><path d="M144.16,320.37a5.65,5.65,0,0,0,2.42.41c5.41-.34,9.82-5.92,17.62-2.5,3.32,1.46,5.45.56,6.79-.94a13.7,13.7,0,0,0-26.83,3Z" opacity="0.9" fill="url(#e31cdbf9-0f08-459e-9ce6-15b332b597b9)" style="mix-blend-mode:multiply"/><path d="M168.26,330.24c-.37-.13-.77-.32-1.26-.55a9.25,9.25,0,0,0-2.72-.95,8.33,8.33,0,0,0-4.53,1.15c-2.17,1-3.62,1.57-5.32.8a11.43,11.43,0,0,0-7-.59,13.66,13.66,0,0,0,9.34,4.85,14,14,0,0,0,4.67-1.49,6.5,6.5,0,0,1,2.35-.82,5,5,0,0,1,1.15.42A13.76,13.76,0,0,0,168.26,330.24Z" opacity="0.74" fill="url(#bc9995fd-dce6-4c4b-9bfe-8f4fe801868e)"/><path d="M171.13,317.51a22.31,22.31,0,0,0-4.64.88,23.39,23.39,0,0,0-3.83,1.7c-3.11,1.59-5.79,3-9.44.94a12.17,12.17,0,0,0-9-1.37,13.61,13.61,0,0,0-.11,1.7,14,14,0,0,0,.42,3.32,7.11,7.11,0,0,1,6.29.65,11.86,11.86,0,0,0,6.81,1.61,18.92,18.92,0,0,0,7.28-2.48,18.75,18.75,0,0,1,3-1.36,18.15,18.15,0,0,1,3.69-.71c0-.36,0-.73,0-1.1A14.2,14.2,0,0,0,171.13,317.51Z" opacity="0.87" fill="url(#b3f6d446-b142-4591-b9c9-0c67d47f7fa5)"/><path d="M168.36,312.37a13.77,13.77,0,0,0-2.59-2.35,30.12,30.12,0,0,0-4.6,2.46c-3.9,2.38-5.92,3.33-7.59,1.72a14.58,14.58,0,0,0-4.83-3.19,14.16,14.16,0,0,0-2.15,2.42,10.37,10.37,0,0,1,4.93,2.9A5.41,5.41,0,0,0,155.4,318c2.49,0,5.08-1.59,7.3-2.95C164.64,313.82,166.63,312.6,168.36,312.37Z" opacity="0.87" fill="url(#b8924fe1-17d3-4197-9f05-2fcb04002c71)"/><path d="M157,311.47a11.24,11.24,0,0,0,6.69-2.65,13.19,13.19,0,0,0-2.26-.81c-3.83,2.44-6.39,1.47-8,.29a13.25,13.25,0,0,0-2,.89A8.65,8.65,0,0,0,157,311.47Z" opacity="0.87" fill="url(#e763448d-b08f-46e8-bae4-02e25e3e163c)"/><path d="M419.77,248.46a3.39,3.39,0,1,1-1.27-4.63A3.4,3.4,0,0,1,419.77,248.46Z" fill="#fff"/><path d="M395.72,257.79a3.39,3.39,0,1,1-.33,4.78A3.38,3.38,0,0,1,395.72,257.79Z" fill="#fff"/><path d="M606,415.22a3.39,3.39,0,1,1,4.26-2.18A3.39,3.39,0,0,1,606,415.22Z" fill="#fff"/><path d="M591.91,393.6a3.39,3.39,0,1,1-4.75.65A3.39,3.39,0,0,1,591.91,393.6Z" fill="#fff"/><path d="M723.13,272.17a3.39,3.39,0,1,1,1.06-4.68A3.39,3.39,0,0,1,723.13,272.17Z" fill="#fff"/><path d="M713,290.94a3.39,3.39,0,1,1,1.06-4.68A3.4,3.4,0,0,1,713,290.94Z" fill="#fff"/><path d="M697.53,269.08a3.39,3.39,0,1,1-2.55,4.06A3.39,3.39,0,0,1,697.53,269.08Z" fill="#fff"/><path d="M113.87,394.42a3.39,3.39,0,1,1-.85-4.72A3.38,3.38,0,0,1,113.87,394.42Z" fill="#fff"/><path d="M89.09,401.58a3.39,3.39,0,1,1-.76,4.73A3.39,3.39,0,0,1,89.09,401.58Z" fill="#fff"/><path d="M349.82,67.67A2.82,2.82,0,1,1,353,65.23,2.81,2.81,0,0,1,349.82,67.67Z" fill="#fff"/><path d="M319.06,76a6,6,0,1,1,6.69-5.17A6,6,0,0,1,319.06,76Z" fill="none" stroke="#fff" stroke-miterlimit="10"/><path d="M313.11,45.72a2.81,2.81,0,1,1,3.15-2.43A2.81,2.81,0,0,1,313.11,45.72Z" fill="#fff"/><path d="M339.45,44.26a5.31,5.31,0,1,1,5.94-4.59A5.31,5.31,0,0,1,339.45,44.26Z" fill="#fff"/><path d="M33.37,71.93a2.82,2.82,0,1,1-1.53,3.68A2.81,2.81,0,0,1,33.37,71.93Z" fill="#fff"/><path d="M56,49.45a6,6,0,1,1-3.25,7.8A6,6,0,0,1,56,49.45Z" fill="none" stroke="#fff" stroke-miterlimit="10"/><path d="M76.13,72.8a2.82,2.82,0,1,1-1.53,3.68A2.82,2.82,0,0,1,76.13,72.8Z" fill="#fff"/><path d="M54,87.13a5.3,5.3,0,1,1-2.88,6.92A5.3,5.3,0,0,1,54,87.13Z" fill="#fff"/><path d="M539,37.11a3.39,3.39,0,1,1-1.26-4.62A3.38,3.38,0,0,1,539,37.11Z" fill="#fff"/><path d="M255,330.88a3.39,3.39,0,1,1-1.27-4.62A3.39,3.39,0,0,1,255,330.88Z" fill="#fff"/><path d="M621,223a3.39,3.39,0,1,1-1.27-4.63A3.39,3.39,0,0,1,621,223Z" fill="#fff"/><path d="M724.27,400.59A3.39,3.39,0,1,1,723,396,3.4,3.4,0,0,1,724.27,400.59Z" fill="#fff"/><path d="M157.89,248.46a3.39,3.39,0,1,1-1.27-4.63A3.4,3.4,0,0,1,157.89,248.46Z" fill="#fff"/><path d="M299,154.87a3.39,3.39,0,1,1-1.27-4.63A3.39,3.39,0,0,1,299,154.87Z" fill="#fff"/><path d="M512.12,157.23a3.39,3.39,0,1,1-1.27-4.62A3.39,3.39,0,0,1,512.12,157.23Z" fill="#fff"/><path d="M490,394.75a3.39,3.39,0,1,1-1.27-4.63A3.4,3.4,0,0,1,490,394.75Z" fill="#fff"/><path d="M121.09,119.45a3.39,3.39,0,1,1-1.27-4.62A3.38,3.38,0,0,1,121.09,119.45Z" fill="#fff"/><path d="M652.26,110.18a3.39,3.39,0,1,1-1.27-4.62A3.39,3.39,0,0,1,652.26,110.18Z" fill="#fff"/></g></g></svg>